<svg id="Capa_1" data-name="Capa 1" xmlns="http://www.w3.org/2000/svg" viewBox="0 0 49.01 49.01"><defs><style>.cls-1,.cls-2{fill:#ffc221;}.cls-2{stroke:#231f20;stroke-miterlimit:10;}.cls-3{fill-rule:evenodd;}.cls-4{fill:#ed1c24;}</style></defs><title>icon-map-car</title><rect class="cls-1" x="7.67" y="8.21" width="37.01" height="37.01" rx="4" ry="4" transform="translate(-12.89 24.12) rotate(-45)"/><rect class="cls-2" x="8.79" y="9.33" width="34.77" height="34.77" rx="3" ry="3" transform="translate(-12.89 24.12) rotate(-45)"/><path class="cls-3" d="M21,18H31.39A3.34,3.34,0,0,1,33.3,19.2a8.38,8.38,0,0,1,.55,1.4c.35.93.73,1.84,1.1,2.8a10.33,10.33,0,0,0,.51,1.4c.25.42.7.7.85,1.06a8.73,8.73,0,0,1,.25,1.7v1.91c-.1,1.38-.4,2.54-1.49,2.93-.14,1.07.41,2.84-.59,3.06h-2c-1.05-.15-.42-2-.59-3-3.71-.1-7.6,0-11.37,0-.17,1,.46,2.9-.59,3.06h-2c-1-.21-.45-1.95-.59-3-.3-.31-.68-.37-.93-.72a5.38,5.38,0,0,1-.55-2.25V27.56a6.58,6.58,0,0,1,.3-1.78c.18-.39.58-.56.81-.93a9.49,9.49,0,0,0,.51-1.44c.38-1,.74-1.85,1.1-2.8A8.09,8.09,0,0,1,19,19.2,3.31,3.31,0,0,1,21,18Zm13,5.56c-.35-.89-.65-1.69-1-2.55a7.17,7.17,0,0,0-.47-1.32c-.59-.94-2-.76-3.57-.76H23.67a19.87,19.87,0,0,0-2.63,0c-1.1.16-1.3,1.1-1.66,2-.16.43-.35.86-.51,1.27A12.12,12.12,0,0,0,18,24.8c5.26.14,11.08.14,16.3,0A2.63,2.63,0,0,0,33.94,23.53Zm-13.58,6.2a1.39,1.39,0,0,0,0-2.46,1.85,1.85,0,0,0-.85,0C17.7,27.59,18.59,30.48,20.36,29.73Zm12.69,0a1.39,1.39,0,0,0,.89-1.27,1.33,1.33,0,0,0-1.66-1.27C30.5,27.6,31.32,30.3,33,29.77Z" transform="translate(-1.67 -2.21)"/><polygon class="cls-4" points="34.85 17.22 17.22 34.85 15.25 32.88 32.88 15.25 34.85 17.22 34.85 17.22"/><path class="cls-4" d="M26.17,40.87A14.16,14.16,0,1,1,40.33,26.71,14.17,14.17,0,0,1,26.17,40.87Zm0-25.79A11.63,11.63,0,1,0,37.8,26.71,11.65,11.65,0,0,0,26.17,15.08Z" transform="translate(-1.67 -2.21)"/></svg>