<?xml version="1.0" encoding="utf-8"?>
<!-- Generator: Adobe Illustrator 21.0.0, SVG Export Plug-In . SVG Version: 6.00 Build 0)  -->
<svg version="1.1" id="Capa_1" xmlns="http://www.w3.org/2000/svg" xmlns:xlink="http://www.w3.org/1999/xlink" x="0px" y="0px"
	 viewBox="0 0 52 52" style="enable-background:new 0 0 52 52;" xml:space="preserve">
<style type="text/css">
	.st0{display:none;fill:#FFFFFF;}
	.st1{display:none;}
	.st2{display:inline;fill:#FFFFFF;}
	.st3{fill:#FCC507;}
	.st4{fill:#FFFFFF;}
	.st5{fill:#FF771D;}
	.st6{fill:#485CAD;}
</style>
<path class="st0" d="M26,5.5c-7.3,0-13.2,5.9-13.2,13.2S18.7,31.9,26,31.9S39.2,26,39.2,18.7S33.3,5.5,26,5.5z M26.7,7.4
	c1,0,1.8,0.8,1.8,1.8S27.7,11,26.7,11s-1.8-0.8-1.8-1.8C24.9,8.2,25.7,7.4,26.7,7.4z M32.3,28.8c-0.2,0-0.4-0.2-0.4-0.4l-0.1-10.7
	h-3.3c-0.3,0-0.6-0.1-0.8-0.4L26.9,16l-0.6,4.2l2.1,2c0.3,0.2,0.4,0.6,0.4,0.9l-0.3,4.6c0,0.6-0.5,1-1.1,1h-0.1
	c-0.6,0-1.1-0.6-1-1.2l0.3-4.1l-2.1-1.9l-0.8,2.8c0,0.1-0.1,0.3-0.2,0.4l-2.6,3.5c-0.2,0.3-0.6,0.5-0.9,0.5c-0.2,0-0.5-0.1-0.7-0.2
	c-0.5-0.4-0.6-1.1-0.2-1.6l2.5-3.3l1.1-4.2l0.1-0.3c-0.9-0.1-1.7-0.9-1.7-1.8V9.5c0-0.4,0.3-0.7,0.7-0.7h1.8c0.4,0,0.7,0.3,0.7,0.7
	v2.1c0.4-0.3,0.9-0.5,1.4-0.4s0.9,0.3,1.2,0.7c0.3,0.4,0.4,0.9,0.4,1.4l0,0l1.8,2.5h3.2c0.5,0,0.9,0.4,0.9,0.9
	c0,0.4-0.2,0.7-0.6,0.9l0.1,10.8C32.7,28.6,32.5,28.8,32.3,28.8z"/>
<g>
	<g class="st1">
		<path class="st2" d="M35.5,18.7c-0.1-0.5-0.4-0.7-0.8-0.7c-0.2,0-0.5,0.1-0.6,0.3L31,21.2c-0.1,0.1-0.1,0.1-0.1,0.2
			c-0.2,0.2-0.2,0.4-0.2,0.6s0.2,0.4,0.3,0.6c0.1,0.1,0.1,0.1,0.2,0.1L32,23c-0.4,1.1-1,2-2,2.9c-1,0.8-2,1.4-3.1,1.6v-14
			c0.6-0.2,1.1-0.6,1.6-1.2c0.4-0.6,0.7-1.1,0.7-1.7c0-0.8-0.3-1.6-0.9-2.2S27,7.5,26.1,7.5s-1.6,0.3-2.2,0.9S23,9.8,23,10.6
			c0,0.6,0.2,1.2,0.6,1.7c0.4,0.6,0.9,1,1.5,1.2v14c-1.1-0.2-2.2-0.7-3.2-1.6s-1.6-1.8-2-2.9l0.8-0.3c0.1,0,0.2-0.1,0.2-0.1
			c0.2-0.2,0.3-0.3,0.3-0.6s0-0.5-0.2-0.6c-0.1-0.1-0.1-0.2-0.1-0.2l-3.1-2.9c-0.2-0.2-0.4-0.3-0.6-0.3c-0.5,0-0.7,0.2-0.8,0.7
			l-0.7,4.2v0.2c0,0.2,0.1,0.5,0.2,0.6s0.4,0.3,0.6,0.3c0.1,0,0.2,0,0.3,0l0.7-0.2c0.6,1.8,1.7,3.2,3.2,4.4c1.5,1.1,3.2,1.7,5.2,1.7
			s3.7-0.6,5.2-1.7s2.6-2.6,3.2-4.4L35,24c0.1,0,0.2,0,0.3,0c0.2,0,0.4-0.1,0.6-0.3s0.2-0.4,0.2-0.6v-0.2L35.5,18.7z M25.2,11.5
			c-0.2-0.3-0.4-0.6-0.4-0.9s0.1-0.6,0.4-0.9c0.2-0.2,0.5-0.4,0.9-0.4c0.3,0,0.6,0.1,0.9,0.4c0.2,0.2,0.4,0.5,0.4,0.9
			s-0.1,0.7-0.4,0.9c-0.2,0.2-0.5,0.4-0.9,0.4S25.4,11.7,25.2,11.5z"/>
	</g>
</g>
<g>
	<path class="st3" d="M11.4,30.2c0.1-0.5,0.8-1.3,0.8-1.3c1.8-0.9,3.3-1.5,4.6-0.1c0.1,0.1,0.2,0.2,0.3,0.3c0.1-0.1,0.3-0.2,0.4-0.2
		c-3-2.4-4.8-6.1-4.8-10.3c0-7.3,6-13.3,13.3-13.3s13.3,6,13.3,13.3c0,5.2-3,9.8-7.4,11.9c0.7,0.2,1.5-0.1,2.3-0.7
		c0.2-0.4,0.7-0.9,0.7-0.9c1.8-0.9,3.3-1.5,4.6-0.1c0.7,0.7,1.2,1.4,1.2,2.2c5-7.2,4.3-18.9-1.9-25.1c-7-7-18.4-7-25.4,0
		c-6.2,6.2-7,17.9-1.9,25C11.4,30.6,11.4,30.4,11.4,30.2z"/>
	<path class="st3" d="M27.2,31.8C27.2,31.8,27.2,31.8,27.2,31.8C27.2,31.8,27.2,31.8,27.2,31.8C27.2,31.8,27.2,31.8,27.2,31.8z"/>
	<path class="st3" d="M27.9,31.8C27.8,31.8,27.8,31.8,27.9,31.8c-0.1,0-0.2,0-0.3,0C27.6,31.8,27.7,31.8,27.9,31.8z"/>
	<path class="st3" d="M13.3,33.6C13.3,33.6,13.2,33.5,13.3,33.6L26,52l0,0L13.3,33.6C13.3,33.6,13.3,33.6,13.3,33.6z"/>
	<path class="st4" d="M26.2,20.2c-0.8,0-1.2,0.9-1.2,1.5c0,0.6,0.4,1.6,1.2,1.6c0.8,0,1.1-0.9,1.1-1.3
		C27.3,21.3,27.1,20.2,26.2,20.2z"/>
	<path class="st4" d="M31.1,20.2c-0.8,0-1.2,0.9-1.2,1.5c0,0.6,0.4,1.6,1.2,1.6c0.8,0,1-0.9,1.1-1.3C32.3,21.3,32.1,20.2,31.1,20.2z
		"/>
	<path class="st4" d="M18.7,20.1c0.6-0.1,1.2-0.5,1.2-1c0-0.4-0.9-0.9-1.5-0.9c-0.6,0-0.5,0.5-0.6,1C17.8,19.7,17.9,20.1,18.7,20.1z
		"/>
	<path class="st4" d="M39.3,18.6c0-7.3-6-13.3-13.3-13.3s-13.3,6-13.3,13.3c0,4.1,1.9,7.8,4.8,10.3c1.3-0.6,2.5-0.4,3.8,0.8
		c1.4,1.3,2.7,1.3,4.1,0c1.6-1.5,3.3-1.5,4.9,0c0.5,0.5,1.1,0.8,1.6,0.9C36.3,28.4,39.3,23.8,39.3,18.6z M31.1,12.2
		c0.6-0.1,0.5-1.8,0.9-1.8c0.8,0,0.4,1.8,0.4,2.3V14c0,0.5,0.1,0.9,0.1,1.4c0,0.9-0.8,0.8-1.7,0.8c-1.3,0-2-0.9-2-1.9
		C28.8,12.9,29.6,12.5,31.1,12.2z M21.7,12.6c0.2,0.1,0.2,0.2,0.3,0.4c0.1,0.2,0.1,0.4,0.1,0.6v0.5c0,0.6,0.1,1.2,0.6,1.3
		c0.9-0.6,0.6-1.7,0.9-2.6c0-0.1,0.1-0.2,0.3-0.2c0.2,0,0.4,0.2,0.4,0.4c0,0.6,0.1,1.3,0.1,1.9c0,0.2,0,0.4-0.1,0.7
		c-0.1,0.2-0.1,0.4-0.3,0.4c-0.5,0-1,0.3-1.6,0.3c-1,0-1.1-0.9-1.1-1.6c0-0.4-0.1-0.8-0.1-1.1C21.3,13.2,21.4,12.8,21.7,12.6z
		 M22.8,18.1c0,0.2,0,0.4-0.2,0.5c-0.2,0.1-0.3,0.2-0.5,0.1c-0.4-0.1-0.5-0.3-0.5-0.5c0-0.3,0.3-0.5,0.6-0.5
		C22.5,17.8,22.8,18,22.8,18.1z M16.6,13.5c0-0.5-0.1-1-0.1-1.5c0-0.3,0.2-1,0.8-1c0.7,0,0.6,1.5,1.3,1.5c0.6,0,0.6-1.6,1.5-1.6
		c0.6,0,0.6,0.6,0.6,1v0.3c0,1.1-0.1,2.7-0.1,3.8c0,0.2-0.2,0.4-0.4,0.4h-0.1c-0.3-0.3-0.4-1.2-0.4-1.7c-0.1-0.6,0-1.1-0.3-1.1
		c-0.1,0-0.4,1-0.8,1c-0.4,0-0.7-0.6-0.9-0.9c-0.1-0.1-0.1-0.2-0.1-0.2c-0.3,0-0.3,0.7-0.2,1.3c0,0.4,0,0.8,0,1
		c-0.1,0.3-0.2,0.5-0.4,0.5s-0.4-0.6-0.4-1.3C16.6,14.4,16.6,13.7,16.6,13.5z M17.7,24.3c-0.8,0-0.6-2.6-0.6-3.5c0-1-0.4-2-0.1-3.1
		c0.1-0.4,0.4-0.4,0.9-0.4c1.2,0,3,0.4,3,1.7c0,0.6-0.1,0.8-0.3,1.5c-0.1,0.3,1.1,0.8,1.2,1.9C21.8,24,19.2,24.3,17.7,24.3z
		 M22.3,23c0-0.4,0.1-0.8,0.1-1.2c0-1.3-0.8-1.2-0.8-2.1c0-0.2,0.4-0.4,0.7-0.4c1,0,1,1.8,1,2.4c0,0.3-0.1,2.4-0.5,2.4
		C22.6,24.1,22.3,23.3,22.3,23z M23.4,30c-0.3-0.1-0.4-0.2-0.5-0.5c-0.1-0.3,0.2-0.5,0.4-0.7c0.4-0.3,1.1,0.1,1,0.5
		C24.1,29.6,23.8,30,23.4,30z M26.2,24.1c-1.6,0-2.4-1.1-2.4-2.4c0-1.7,0.9-2.3,2.7-2.4c0.8-0.1,0.6-2.2,1.1-2.2
		c0.9,0,0.5,2.2,0.5,2.8v1.6c0,0.5,0.1,1.1,0.1,1.7C28.3,24.3,27.3,24.1,26.2,24.1z M28,16.2h-0.3c-0.4-0.5-0.3-1.3-0.3-1.9
		c0-0.4-0.1-1.1-0.6-1.1c-0.7,0-0.9,2.2-0.9,2.7c0,0.2-0.1,0.3-0.3,0.3l-0.3-0.1c-0.4-0.5-0.2-1.2-0.2-1.8c0-0.3-0.1-0.6-0.1-0.9
		c0-0.2,0.1-0.5,0.4-0.6c0.6-0.2,1.3-0.3,2-0.3c0.2,0,0.5,0.3,0.5,0.4c0.2,0.4,0.2,0.8,0.2,1.2c0,0.1,0.1,0.6,0.1,1.1
		C28.3,15.8,28.2,16.2,28,16.2z M28.8,21.7c0-1.7,0.9-2.3,2.7-2.4c0.8-0.1,0.6-2.2,1.1-2.2c0.9,0,0.5,2.2,0.5,2.8v1.6
		c0,0.5,0.1,1.1,0.1,1.7c0,1.1-1,1-2.1,1C29.6,24.1,28.8,23,28.8,21.7z M32.4,30c-0.3-0.1-0.4-0.2-0.5-0.5c-0.1-0.3,0.2-0.5,0.4-0.7
		c0.4-0.3,1.1,0.1,1,0.5C33.1,29.6,32.8,30,32.4,30z M33.1,15.3C33,15.2,33,15.1,33,15c0-0.8,0.5-1.1,1-1.3c0.2-0.1,0.4-0.2,0.6-0.3
		c0.2-0.1,0.2-0.1,0.2-0.2c0-0.2-0.3-0.2-0.5-0.3c-0.2-0.1-0.4-0.2-0.4-0.4s0.5-0.3,0.8-0.3c1.2,0,1.2,0.9,1.2,1.7
		c0,0.4,0.2,0.9,0.2,1.3c0,0.2,0,0.3-0.1,0.5c-0.2,0.2-0.1,0.3-0.3,0.4c-0.2,0.1-0.5,0.1-0.7,0.1C34.1,16.2,33.4,16.3,33.1,15.3z
		 M35.1,18c0,0.2,0,0.4-0.2,0.5c-0.2,0.1-0.3,0.2-0.5,0.1c-0.4-0.1-0.5-0.2-0.5-0.5c0-0.3,0.3-0.5,0.6-0.5
		C34.8,17.6,35.1,17.9,35.1,18z M35.2,24c-0.3,0-0.5-0.9-0.5-1.1c0-0.4,0.1-0.8,0.1-1.2c0-1.3-0.9-1.2-0.9-2.1
		c0.1-0.2,0.5-0.4,0.8-0.4c1,0,1,1.8,1,2.4C35.7,22,35.6,24,35.2,24z"/>
	<path class="st4" d="M35.2,14.6c-0.1-0.4-0.4-0.4-0.6-0.4c-0.3,0-0.6,0.5-0.6,0.7s0.2,0.5,0.4,0.5C34.9,15.4,35.2,15.1,35.2,14.6z"
		/>
	<path class="st4" d="M18.7,21.1c-0.6,0-0.8,0.6-0.8,1.1c0,0.6,0.2,1.1,0.9,1.1s1.7-0.6,1.7-1.2C20.5,21.5,19.5,21.1,18.7,21.1z"/>
	<path class="st4" d="M30.8,15.6c0.6,0,0.9-0.7,0.9-1.1c0-0.5-0.1-1.4-0.9-1.4c-0.6,0-1,0.8-1,1.2C29.8,14.8,30.1,15.6,30.8,15.6z"
		/>
	<path class="st4" d="M27.5,31.8c0.1,0,0.2,0,0.3,0c-0.2,0-0.4,0-0.6,0.1c0,0,0,0,0,0C27.3,31.8,27.4,31.8,27.5,31.8z"/>
	<path class="st5" d="M31.3,33c0,0-0.1,0-0.1,0C31.2,33,31.3,33,31.3,33z"/>
	<path class="st5" d="M35.9,33.6c-0.4-0.2-0.8-0.5-1.1-0.9c0,0,0,0-0.1,0.1c-1.6,1.5-3.3,1.5-4.9,0c-0.7-0.6-1.3-0.9-1.9-0.9
		c-0.1,0-0.2,0-0.3,0c-0.1,0-0.2,0-0.3,0c0,0,0,0-0.1,0c-0.5,0.1-1,0.4-1.5,0.9c-0.8,0.7-1.6,1.2-2.4,1.2c-0.8,0-1.6-0.4-2.4-1.2
		c-1.1-1-2.1-1.2-3.1-0.7c-0.2,0.7-0.6,1.4-1.4,1.8c-1,0.3-2.1,0-3.1-0.3L26,52l0,0l0,0l-5-7.2h10L38.6,34
		C37.7,34.1,36.7,33.8,35.9,33.6z M18.8,33.9c-0.3-0.1-0.4-0.2-0.5-0.5c-0.1-0.3,0.2-0.5,0.4-0.7c0.4-0.3,1.1,0.1,1,0.5
		C19.5,33.4,19.2,33.9,18.8,33.9z M27.7,33.9c-0.3-0.1-0.4-0.2-0.5-0.5c-0.1-0.3,0.2-0.5,0.4-0.7c0.4-0.3,1,0.1,1,0.5
		C28.4,33.4,28.1,33.9,27.7,33.9z"/>
	<path d="M30.8,16.2c0.9,0,1.7,0.1,1.7-0.8c0-0.5-0.1-0.9-0.1-1.4v-1.3c0-0.4,0.3-2.3-0.4-2.3c-0.4,0-0.3,1.7-0.9,1.8
		c-1.5,0.2-2.3,0.7-2.3,2.1C28.8,15.3,29.5,16.2,30.8,16.2z M30.8,13.1c0.8,0,0.9,0.9,0.9,1.4c0,0.4-0.2,1.1-0.9,1.1
		c-0.7,0-1-0.8-1-1.3C29.8,13.9,30.1,13.1,30.8,13.1z"/>
	<path d="M17.2,16.4c0.2,0,0.4-0.2,0.4-0.5c0-0.3,0-0.6,0-1c-0.1-0.6-0.1-1.3,0.2-1.3c0,0,0,0.1,0.1,0.2c0.2,0.3,0.5,0.9,0.9,0.9
		c0.4,0,0.7-1,0.8-1c0.3,0,0.2,0.5,0.3,1.1c0,0.4,0.1,1.3,0.4,1.7h0.1c0.2,0,0.4-0.2,0.4-0.4c0-1.1,0.1-2.7,0.1-3.8v-0.3
		c0-0.4-0.1-1-0.6-1c-0.9,0-0.8,1.6-1.5,1.6c-0.6,0-0.6-1.5-1.3-1.5c-0.6,0-0.8,0.6-0.8,1c0,0.5,0.1,1,0.1,1.5c0,0.2,0,0.9,0.1,1.5
		C16.8,15.8,16.9,16.4,17.2,16.4z"/>
	<path d="M22.5,16.3c0.5,0,1-0.3,1.6-0.3c0.2,0,0.2-0.2,0.3-0.4c0.1-0.3,0.1-0.5,0.1-0.7c0-0.6-0.1-1.3-0.1-1.9
		c0-0.2-0.2-0.4-0.4-0.4c-0.2,0-0.3,0.1-0.3,0.2c-0.3,0.9-0.1,2-0.9,2.6c-0.6-0.2-0.6-0.7-0.6-1.3v-0.5c0-0.2,0-0.4-0.1-0.6
		c-0.1-0.2-0.1-0.3-0.3-0.4c-0.3,0.3-0.4,0.6-0.4,1c0,0.4,0.1,0.8,0.1,1.1C21.4,15.4,21.5,16.3,22.5,16.3z"/>
	<path d="M28.1,12.9c-0.1-0.1-0.4-0.4-0.5-0.4c-0.6,0-1.3,0.1-2,0.3c-0.3,0.1-0.4,0.4-0.4,0.6c0,0.3,0.1,0.6,0.1,0.9
		c0,0.6-0.2,1.3,0.2,1.8l0.3,0.1c0.2,0,0.3-0.2,0.3-0.3c0.1-0.5,0.2-2.7,0.9-2.7c0.5,0,0.6,0.7,0.6,1.1c0,0.6-0.1,1.3,0.3,1.9H28
		c0.2,0,0.3-0.5,0.3-1c0-0.5-0.1-1-0.1-1.1C28.3,13.8,28.3,13.3,28.1,12.9z"/>
	<path d="M35,16.2c0.2,0,0.5,0,0.7-0.1c0.2-0.1,0.2-0.2,0.3-0.4c0.1-0.2,0.1-0.3,0.1-0.5c0-0.4-0.2-0.9-0.2-1.3
		c0-0.8,0.1-1.7-1.2-1.7c-0.2,0-0.8,0.1-0.8,0.3s0.2,0.3,0.4,0.4c0.2,0.1,0.5,0.1,0.5,0.3c0,0.1-0.1,0.2-0.2,0.2
		c-0.2,0.1-0.4,0.2-0.6,0.3c-0.5,0.2-1,0.5-1,1.3c0,0.1,0,0.2,0.1,0.3C33.4,16.3,34.1,16.2,35,16.2z M34,14.9c0-0.2,0.4-0.7,0.6-0.7
		c0.2,0,0.5,0.1,0.6,0.4c0,0.4-0.3,0.8-0.8,0.8C34.2,15.4,34,15.1,34,14.9z"/>
	<path d="M20.6,20.6c0.2-0.7,0.3-0.9,0.3-1.5c0-1.3-1.8-1.7-3-1.7c-0.4,0-0.8,0.1-0.9,0.4c-0.4,1.1,0.1,2.1,0.1,3.1
		c0,0.9-0.2,3.5,0.6,3.5c1.5,0,4.1-0.3,4-1.9C21.7,21.3,20.5,20.8,20.6,20.6z M18.4,18.3c0.5,0,1.5,0.5,1.5,0.9c0,0.5-0.6,0.9-1.2,1
		c-0.8,0-0.9-0.4-0.9-0.9C17.9,18.8,17.8,18.3,18.4,18.3z M18.8,23.4c-0.8,0-0.9-0.5-0.9-1.1c0-0.5,0.2-1.1,0.8-1.1
		c0.8,0,1.8,0.3,1.8,1C20.5,22.8,19.6,23.4,18.8,23.4z"/>
	<path d="M21.6,18.3c0,0.2,0.1,0.4,0.5,0.5c0.2,0.1,0.3,0,0.5-0.1c0.2-0.2,0.2-0.4,0.2-0.5c0-0.1-0.4-0.3-0.6-0.3
		C21.9,17.8,21.6,18,21.6,18.3z"/>
	<path d="M23.4,21.7c0-0.5-0.1-2.4-1-2.4c-0.3,0-0.7,0.2-0.7,0.4c0,0.8,0.8,0.8,0.8,2.1c0,0.4-0.1,0.8-0.1,1.2
		c0,0.2,0.2,1.1,0.5,1.1C23.3,24.1,23.4,22.1,23.4,21.7z"/>
	<path d="M28.2,19.9c0-0.5,0.4-2.8-0.5-2.8c-0.4,0-0.3,2.1-1.1,2.2c-1.8,0.2-2.7,0.8-2.7,2.4c0,1.2,0.8,2.4,2.4,2.4
		c1.1,0,2.1,0.2,2.1-1c0-0.5-0.1-1.1-0.1-1.7V19.9z M26.2,23.3c-0.9,0-1.2-1-1.2-1.6c0-0.5,0.4-1.5,1.2-1.5c1,0,1.1,1.1,1.1,1.7
		C27.3,22.4,27,23.3,26.2,23.3z"/>
	<path d="M33.2,23.1c0-0.5-0.1-1.1-0.1-1.7v-1.6c0-0.5,0.4-2.8-0.5-2.8c-0.4,0-0.3,2.1-1.1,2.2c-1.8,0.2-2.7,0.8-2.7,2.4
		c0,1.2,0.8,2.4,2.4,2.4C32.3,24.1,33.2,24.3,33.2,23.1z M31.2,23.3c-0.9,0-1.2-1-1.2-1.6c0-0.5,0.4-1.5,1.2-1.5
		c1,0,1.1,1.1,1.1,1.7C32.2,22.4,32,23.3,31.2,23.3z"/>
	<path d="M33.9,18.1c0,0.3,0.1,0.4,0.5,0.5c0.2,0.1,0.3,0,0.5-0.1c0.2-0.1,0.2-0.4,0.2-0.5c0-0.1-0.4-0.3-0.6-0.3
		C34.2,17.6,33.9,17.9,33.9,18.1z"/>
	<path d="M34.6,19.3c-0.3,0-0.7,0.2-0.8,0.4c0,0.8,0.9,0.8,0.9,2.1c0,0.4-0.1,0.8-0.1,1.2c0,0.2,0.2,1.1,0.5,1.1
		c0.4,0,0.5-2.1,0.5-2.4C35.7,21.1,35.7,19.3,34.6,19.3z"/>
	<path class="st4" d="M29.9,30c-1.4-1.3-2.7-1.3-4.1,0c-0.9,0.9-1.7,1.2-2.5,1.2c-0.8,0-1.6-0.4-2.4-1.2c-1.2-1-2.3-1.2-3.4-0.5
		c0.1,0.1,0.2,0.3,0.3,0.5c1.2-0.5,2.4-0.2,3.5,0.9c1.4,1.3,2.7,1.3,4.1,0c1.6-1.5,3.3-1.5,4.9,0c1.2,1.2,2.5,1.3,3.8,0.2
		c0-0.2,0-0.4,0-0.5C32.7,31.5,31.2,31.3,29.9,30z"/>
	<path class="st4" d="M34.2,31.8c-1.4,1-2.9,0.9-4.3-0.5c-1.3-1.3-2.7-1.3-4.1,0c-0.9,0.9-1.7,1.2-2.5,1.2c-0.8,0-1.6-0.4-2.4-1.2
		c-1-0.9-1.9-1.2-2.9-0.8c0,0.2,0.1,0.4,0,0.5c0,0,0,0.1,0,0.1c1.1-0.3,2.2,0,3.3,1c1.4,1.3,2.7,1.3,4.1,0c1.6-1.5,3.3-1.5,4.9,0
		c0.3,0.3,0.6,0.5,1,0.7c0,0,0.1,0,0.1,0c1,0.4,2,0.2,3-0.7c0,0,0.1,0,0.1-0.1C34.3,32.1,34.2,31.9,34.2,31.8z"/>
	<path d="M23.2,28.8c-0.2,0.2-0.5,0.4-0.4,0.7c0.1,0.3,0.2,0.4,0.5,0.5c0.4,0,0.7-0.4,0.9-0.7C24.3,28.8,23.7,28.5,23.2,28.8z"/>
	<path d="M32.3,28.8c-0.2,0.2-0.5,0.4-0.4,0.7c0.1,0.3,0.2,0.4,0.5,0.5c0.4,0,0.7-0.4,0.9-0.7C33.4,28.8,32.7,28.5,32.3,28.8z"/>
	<path d="M18.7,32.7c-0.2,0.2-0.5,0.4-0.4,0.7c0.1,0.3,0.2,0.4,0.5,0.5c0.4,0,0.7-0.4,0.9-0.7C19.8,32.7,19.1,32.4,18.7,32.7z"/>
	<path d="M27.6,32.7c-0.2,0.2-0.5,0.4-0.4,0.7c0.1,0.3,0.2,0.4,0.5,0.5c0.4,0,0.7-0.4,0.9-0.7C28.6,32.7,28,32.4,27.6,32.7z"/>
	<path d="M39.4,28.8c-1.3-1.3-2.9-0.7-4.6,0.1c0,0-0.4,0.5-0.7,0.9c-0.8,0.6-1.5,0.9-2.3,0.7c-0.5-0.1-1.1-0.4-1.6-0.9
		c-1.6-1.5-3.3-1.5-4.9,0c-1.4,1.3-2.7,1.3-4.1,0c-1.2-1.2-2.5-1.4-3.8-0.8c-0.1,0.1-0.3,0.2-0.4,0.2c-0.1-0.1-0.2-0.2-0.3-0.3
		c-1.3-1.3-2.9-0.7-4.6,0.1c0,0-0.7,0.8-0.8,1.3c0,0.2,0,0.5,0,0.7c0,0.4,0.1,0.8,0.1,0.8c0.2,0.8,0.9,1.4,1.7,1.8c0,0,0,0,0.1,0
		c0,0,0,0,0,0c1,0.3,2.1,0.6,3.1,0.3c0.8-0.5,1.1-1.1,1.4-1.8c1-0.6,2.1-0.3,3.1,0.7c0.8,0.8,1.6,1.2,2.4,1.2c0.8,0,1.6-0.4,2.4-1.2
		c0.5-0.5,1-0.7,1.5-0.9c0,0,0,0,0,0c0.2-0.1,0.4-0.1,0.6-0.1c0,0,0,0,0,0c0.6,0,1.3,0.3,1.9,0.9c1.6,1.5,3.3,1.5,4.9,0
		c0,0,0,0,0.1-0.1c0.3,0.4,0.7,0.7,1.1,0.9c0.8,0.3,1.8,0.5,2.7,0.4c0.1,0,0.3,0,0.4-0.1c1.1-0.7,1.4-1.8,1.6-2.7c0-0.1,0-0.1,0-0.2
		C40.6,30.1,40.1,29.4,39.4,28.8z M31.3,33c0,0-0.1,0-0.1,0c-0.3-0.2-0.6-0.4-1-0.7c-1.6-1.5-3.3-1.5-4.9,0c-1.4,1.3-2.7,1.3-4.1,0
		c-1.1-1-2.2-1.3-3.3-1c0,0,0-0.1,0-0.1c0-0.2,0-0.4,0-0.5c1-0.4,1.9-0.1,2.9,0.8c0.8,0.8,1.6,1.2,2.4,1.2c0.8,0,1.6-0.4,2.5-1.2
		c1.4-1.3,2.7-1.3,4.1,0c1.4,1.3,2.9,1.5,4.3,0.5c0.1,0.1,0.1,0.3,0.2,0.4c0,0-0.1,0-0.1,0.1C33.3,33.2,32.3,33.5,31.3,33z
		 M34.1,31.1c-1.3,1-2.5,1-3.8-0.2c-1.6-1.5-3.3-1.5-4.9,0c-1.4,1.3-2.7,1.3-4.1,0c-1.1-1-2.3-1.4-3.5-0.9c-0.1-0.2-0.2-0.3-0.3-0.5
		c1.1-0.7,2.2-0.5,3.4,0.5c0.8,0.8,1.6,1.2,2.4,1.2c0.8,0,1.6-0.4,2.5-1.2c1.4-1.3,2.7-1.3,4.1,0c1.4,1.3,2.8,1.5,4.2,0.6
		C34.1,30.8,34.1,30.9,34.1,31.1z M15.8,33.4c-1.3-0.1-2.6-0.3-3.4-1.4c-0.1-0.6-0.4-1.2-0.3-1.8c0.5-1,1.7-1.3,2.7-1.6
		c1,0.1,2.1,0.7,2.6,1.6C17.6,31.7,17.2,32.6,15.8,33.4z M35,32c-0.1-0.6-0.4-1.2-0.3-1.8c0.5-1,1.7-1.3,2.7-1.6
		c1,0.1,2.1,0.7,2.6,1.6c0.4,1.4-0.1,2.3-1.5,3.2C37,33.4,35.8,33.1,35,32z"/>
	<path class="st4" d="M39.9,30.3c-0.4-1-1.5-1.6-2.6-1.6c-1,0.4-2.2,0.6-2.7,1.6c-0.1,0.6,0.2,1.2,0.3,1.8c0.9,1.1,2.1,1.3,3.4,1.4
		C39.8,32.6,40.3,31.7,39.9,30.3z M36.8,32.6c-0.8-0.2-1.4-1.1-1.6-1.8c0.2-0.9,1.2-1.6,2.1-1.8c0.9-0.1,1.6,0.5,2,1.2
		c0.3,0.7,0.1,1.3-0.3,1.9C38.5,32.7,37.6,32.9,36.8,32.6z"/>
	<path d="M39,32.1c0.4-0.6,0.6-1.3,0.3-1.9c-0.4-0.7-1.1-1.3-2-1.2c-1,0.2-1.9,0.9-2.1,1.8c0.2,0.7,0.8,1.6,1.6,1.8
		C37.6,32.9,38.5,32.7,39,32.1z M36.9,32.1c-0.5-0.2-1-0.7-0.9-1.4c0.2-0.5,0.7-0.6,1.1-0.9c0.8-0.2,1.4,0.2,1.7,0.8
		c0.3,0.5,0,1-0.3,1.4C38,32.2,37.3,32.6,36.9,32.1z"/>
	<path class="st4" d="M38.5,32c0.3-0.4,0.6-0.9,0.3-1.4c-0.3-0.6-0.9-1-1.7-0.8c-0.4,0.3-0.9,0.4-1.1,0.9c-0.2,0.7,0.4,1.2,0.9,1.4
		C37.3,32.6,38,32.2,38.5,32z M36.8,31.3c-0.1-0.4,0.2-0.5,0.4-0.8c0.4-0.4,1.2,0.1,1.1,0.5c0,0.4-0.5,0.8-1,0.8
		C37,31.7,36.9,31.6,36.8,31.3z"/>
	<path d="M37.3,31.8c0.4,0,1-0.4,1-0.8c0.1-0.5-0.7-0.9-1.1-0.5c-0.2,0.2-0.5,0.4-0.4,0.8C36.9,31.6,37,31.7,37.3,31.8z"/>
	<path class="st4" d="M17.3,30.3c-0.4-1-1.5-1.6-2.6-1.6c-1,0.4-2.2,0.6-2.7,1.6c-0.1,0.6,0.2,1.2,0.3,1.8c0.9,1.1,2.1,1.3,3.4,1.4
		C17.2,32.6,17.6,31.7,17.3,30.3z M16.4,32.1c-0.5,0.6-1.5,0.8-2.2,0.5c-0.8-0.2-1.4-1.1-1.6-1.8c0.2-0.9,1.2-1.6,2.1-1.8
		c0.9-0.1,1.6,0.5,2,1.2C17,30.8,16.8,31.5,16.4,32.1z"/>
	<path d="M16.7,30.2c-0.4-0.7-1.1-1.3-2-1.2c-1,0.2-1.9,0.9-2.1,1.8c0.2,0.7,0.8,1.6,1.6,1.8c0.8,0.3,1.7,0.1,2.2-0.5
		C16.8,31.5,17,30.8,16.7,30.2z M14.3,32.1c-0.5-0.2-1-0.7-0.9-1.4c0.2-0.5,0.7-0.6,1.1-0.9c0.7-0.2,1.3,0.2,1.6,0.8
		c0.3,0.5,0,1-0.2,1.4C15.5,32.2,14.8,32.6,14.3,32.1z"/>
	<path class="st4" d="M16.2,30.6c-0.3-0.6-1-1-1.6-0.8c-0.4,0.3-0.9,0.4-1.1,0.9c-0.2,0.7,0.4,1.2,0.9,1.4c0.5,0.5,1.2,0.1,1.6-0.1
		C16.2,31.6,16.5,31.1,16.2,30.6z M14.7,31.8c-0.4-0.1-0.4-0.2-0.5-0.5c-0.1-0.4,0.2-0.5,0.4-0.8c0.4-0.4,1.2,0.1,1.1,0.5
		C15.6,31.4,15.2,31.8,14.7,31.8z"/>
	<path d="M15.7,31c0.1-0.5-0.7-0.9-1.1-0.5c-0.2,0.2-0.5,0.4-0.4,0.8c0.1,0.4,0.2,0.4,0.5,0.5C15.2,31.8,15.6,31.4,15.7,31z"/>
	<polygon class="st6" points="21.1,44.8 26,52 26.1,52 31.1,44.8 31,44.8 	"/>
</g>
</svg>
