<?xml version="1.0" encoding="utf-8"?>
<!-- Generator: Adobe Illustrator 21.0.0, SVG Export Plug-In . SVG Version: 6.00 Build 0)  -->
<svg version="1.1" id="Layer_1" xmlns="http://www.w3.org/2000/svg" xmlns:xlink="http://www.w3.org/1999/xlink" x="0px" y="0px"
	 viewBox="0 0 40 40" style="enable-background:new 0 0 40 40;" xml:space="preserve">
<style type="text/css">
	.st0{fill:#FFFFFF;}
	.st1{fill:#010101;}
	.st2{fill:#0077C0;}
</style>
<title>Icons</title>
<path class="st0" d="M20,5.3c0.5,0,0.9,0.2,1.2,0.5l13.1,13.1c0.7,0.7,0.7,1.7,0,2.4L21.2,34.3c-0.7,0.7-1.7,0.7-2.4,0L5.7,21.2
	c-0.7-0.7-0.7-1.7,0-2.4L18.8,5.7C19.1,5.4,19.5,5.2,20,5.3"/>
<path class="st1" d="M20,5.3c0.5,0,0.9,0.2,1.2,0.5l13.1,13.1c0.7,0.7,0.7,1.7,0,2.4L21.2,34.3c-0.3,0.3-0.8,0.5-1.2,0.5
	c-0.5,0-0.9-0.2-1.2-0.5L5.7,21.2c-0.7-0.7-0.7-1.7,0-2.4L18.8,5.7C19.1,5.4,19.5,5.2,20,5.3 M20,3c-1,0-2.1,0.4-2.8,1.2L4.1,17.2
	c-1.5,1.6-1.5,4,0,5.6l13.1,13.1C18,36.6,19,37,20,37c1,0,2.1-0.4,2.8-1.2l13.1-13.1c1.5-1.6,1.5-4,0-5.6L22.8,4.2
	C22.1,3.4,21,3,20,3L20,3z"/>
<g>
	<g id="dXMLID_67_">
		<path id="dXMLID_225_" class="st2" d="M20.6,9.4l4.8,1.9v15.7L16.1,30L11,18.1l7.7-3.8L20.6,9.4z"/>
	</g>
	<g id="dXMLID_57_">
		<path id="dXMLID_209_" class="st0" d="M20.6,22.7h-1.4l-0.4-6.1H21L20.6,22.7z"/>
	</g>
	<g id="dXMLID_56_">
		<path id="dXMLID_207_" class="st0" d="M19.1,23.8h1.6v1.5h-1.6V23.8z"/>
	</g>
</g>
</svg>
