<svg id="Capa_1" data-name="Capa 1" xmlns="http://www.w3.org/2000/svg" viewBox="0 0 35.88 51.34"><defs><style>.cls-1{fill:#1081e0;}.cls-2{fill:#015591;}.cls-3{fill:#fff;}.cls-4{fill:#416b26;}.cls-5{fill:#ed1c24;}</style></defs><title>icon-map-park-closure-final</title><circle class="cls-1" cx="18.69" cy="8.54" r="1.8"/><path class="cls-2" d="M38.63,5.92a17.94,17.94,0,0,0-25.37,0h0c-6.31,6.31-7,18.2-1.67,25.35L25.94,52,40.29,31.27C45.65,24.12,44.94,12.24,38.63,5.92ZM25.94,31.83A13.17,13.17,0,1,1,39.11,18.66h0A13.17,13.17,0,0,1,25.94,31.83Z" transform="translate(-8.01 -0.66)"/><circle class="cls-3" cx="17.93" cy="17.93" r="13.25"/><path class="cls-4" d="M32.19,28.51V24.77h4l-2.58-3.11H35l-2.4-2.84h1.51l-2-2.31H33l-1.51-1.78-1.33,1.78-2.58-3H30l-3.2-3.73h1.51l-2.44-3L23.66,9.67h1.51L22.24,13.4h2.4l-3,4-.8-.89h.89l-1.51-1.78L18.8,16.51h1l-1.86,2.31h1.51l-2.22,2.84h1.33l-2.4,3.11h4V28.5h.62V24.77h4L23.3,23h2.58v5.69H19.57v.62H33.26v-.62H26.94V23h2l-1.42,1.78h4v3.73h.67ZM23.3,18l-.62.8-.62-.8Zm-2,.8h1.42l-.71.89Zm8.62,0h.89l-.44.53Zm1.24-2.31-.44.53-.44-.53ZM29.88,18l-.36.44L29.17,18Z" transform="translate(-8.01 -0.66)"/><polygon class="cls-5" points="29.7 9.88 9.85 29.74 7.63 27.51 27.48 7.66 29.7 9.88 29.7 9.88"/><path class="cls-5" d="M26.05,34.69a15.95,15.95,0,1,1,16-16h0A16,16,0,0,1,26.05,34.69Zm0-29a13.1,13.1,0,1,0,13.1,13.1h0A13.12,13.12,0,0,0,26.05,5.64Z" transform="translate(-8.01 -0.66)"/></svg>