<?xml version="1.0" encoding="utf-8"?>
<!-- Generator: Adobe Illustrator 21.0.0, SVG Export Plug-In . SVG Version: 6.00 Build 0)  -->
<svg version="1.1" id="Capa_1" xmlns="http://www.w3.org/2000/svg" xmlns:xlink="http://www.w3.org/1999/xlink" x="0px" y="0px"
	 viewBox="0 0 52 52" style="enable-background:new 0 0 52 52;" xml:space="preserve">
<style type="text/css">
	.st0{fill:#E04006;}
	.st1{display:none;fill:#FFFFFF;}
	.st2{display:none;}
	.st3{display:inline;fill:#FFFFFF;}
	.st4{fill:#3F3F3F;}
	.st5{fill:#FFFFFF;}
	.st6{display:inline;fill:none;}
	.st7{display:inline;fill:#0079BC;}
	.st8{display:inline;}
	.st9{fill:#0079BC;}
	.st10{display:none;fill:#EEAD00;}
	.st11{display:none;fill:#E04006;}
</style>
<path class="st0" d="M38.7,5.9c-7-7-18.4-7-25.4,0c-6.3,6.3-7,18.2-1.7,25.3L26,52l14.4-20.7C45.7,24.1,45,12.2,38.7,5.9z M26,31.8
	c-7.3,0-13.2-5.9-13.2-13.2c0-7.3,5.9-13.2,13.2-13.2s13.2,5.9,13.2,13.2C39.2,25.9,33.3,31.8,26,31.8z M35.4,18.7
	c-0.1-0.4-0.4-0.7-0.8-0.7c-0.2,0-0.4,0.1-0.6,0.3l-3,2.9c-0.1,0.1-0.1,0.1-0.1,0.2c-0.1,0.2-0.2,0.4-0.2,0.6c0,0.2,0.2,0.4,0.3,0.6
	c0.1,0.1,0.1,0.1,0.2,0.1L32,23c-0.4,1-1,2-2,2.8c-1,0.8-2,1.4-3.1,1.6V13.6c0.6-0.2,1.1-0.6,1.5-1.2c0.4-0.6,0.6-1.1,0.6-1.7
	c0-0.8-0.3-1.6-0.9-2.2S26.9,7.6,26,7.6s-1.5,0.3-2.1,0.9S23,9.9,23,10.7c0,0.6,0.2,1.2,0.6,1.7c0.4,0.6,0.9,0.9,1.5,1.2v13.8
	c-1.1-0.2-2.2-0.7-3.1-1.6C21,25,20.4,24,20,23l0.8-0.3c0.1,0,0.2-0.1,0.2-0.1c0.2-0.1,0.3-0.3,0.3-0.6s0-0.4-0.2-0.6
	c-0.1-0.1-0.1-0.1-0.1-0.2l-3-2.9c-0.2-0.2-0.4-0.3-0.6-0.3c-0.4,0-0.7,0.2-0.8,0.7l-0.7,4.2v0.2c0,0.2,0.1,0.4,0.2,0.6
	c0.2,0.2,0.4,0.3,0.6,0.3c0.1,0,0.2,0,0.3,0l0.7-0.2c0.6,1.8,1.6,3.2,3.1,4.3c1.5,1.1,3.2,1.7,5.1,1.7s3.6-0.6,5.1-1.7
	c1.5-1.1,2.5-2.6,3.1-4.3l0.7,0.2c0.1,0,0.1,0,0.3,0c0.2,0,0.4-0.1,0.6-0.3c0.2-0.2,0.2-0.4,0.2-0.6v-0.2L35.4,18.7z M25.2,11.6
	c-0.2-0.3-0.4-0.6-0.4-0.9S25,10,25.2,9.8c0.2-0.2,0.5-0.4,0.9-0.4s0.6,0.1,0.9,0.4s0.4,0.5,0.4,0.9s-0.1,0.7-0.4,0.9
	c-0.2,0.2-0.5,0.4-0.9,0.4S25.4,11.8,25.2,11.6z"/>
<path class="st1" d="M26,5.5c-7.3,0-13.2,5.9-13.2,13.2c0,7.3,5.9,13.2,13.2,13.2s13.2-5.9,13.2-13.2C39.2,11.4,33.3,5.5,26,5.5z
	 M26.7,7.4c1,0,1.8,0.8,1.8,1.8c0,1-0.8,1.8-1.8,1.8c-1,0-1.8-0.8-1.8-1.8C24.9,8.2,25.7,7.4,26.7,7.4z M32.3,28.8
	c-0.2,0-0.4-0.2-0.4-0.4l-0.1-10.7h-3.3c-0.3,0-0.6-0.1-0.8-0.4L26.9,16l-0.6,4.2l2.1,2c0.3,0.2,0.4,0.6,0.4,0.9l-0.3,4.6
	c0,0.6-0.5,1-1.1,1c0,0-0.1,0-0.1,0c-0.6,0-1.1-0.6-1-1.2l0.3-4.1l-2.1-1.9l-0.8,2.8c0,0.1-0.1,0.3-0.2,0.4l-2.6,3.5
	c-0.2,0.3-0.6,0.5-0.9,0.5c-0.2,0-0.5-0.1-0.7-0.2c-0.5-0.4-0.6-1.1-0.2-1.6l2.5-3.3l1.1-4.2l0.1-0.3c-0.9-0.1-1.7-0.9-1.7-1.8V9.5
	c0-0.4,0.3-0.7,0.7-0.7h1.8c0.4,0,0.7,0.3,0.7,0.7v2.1c0.4-0.3,0.9-0.5,1.4-0.4c0.5,0.1,0.9,0.3,1.2,0.7c0.3,0.4,0.4,0.9,0.4,1.4
	l0,0l1.8,2.5h3.2c0.5,0,0.9,0.4,0.9,0.9c0,0.4-0.2,0.7-0.6,0.9l0.1,10.8C32.7,28.6,32.5,28.8,32.3,28.8z"/>
<g>
	<g class="st2">
		<path class="st3" d="M35.5,18.7c-0.1-0.5-0.4-0.7-0.8-0.7c-0.2,0-0.5,0.1-0.6,0.3L31,21.2c-0.1,0.1-0.1,0.1-0.1,0.2
			c-0.2,0.2-0.2,0.4-0.2,0.6c0,0.2,0.2,0.4,0.3,0.6c0.1,0.1,0.1,0.1,0.2,0.1L32,23c-0.4,1.1-1,2-2,2.9c-1,0.8-2,1.4-3.1,1.6v-14
			c0.6-0.2,1.1-0.6,1.6-1.2c0.4-0.6,0.7-1.1,0.7-1.7c0-0.8-0.3-1.6-0.9-2.2c-0.6-0.6-1.3-0.9-2.2-0.9s-1.6,0.3-2.2,0.9
			S23,9.8,23,10.6c0,0.6,0.2,1.2,0.6,1.7c0.4,0.6,0.9,1,1.5,1.2v14c-1.1-0.2-2.2-0.7-3.2-1.6s-1.6-1.8-2-2.9l0.8-0.3
			c0.1,0,0.2-0.1,0.2-0.1c0.2-0.2,0.3-0.3,0.3-0.6s0-0.5-0.2-0.6c-0.1-0.1-0.1-0.2-0.1-0.2l-3.1-2.9c-0.2-0.2-0.4-0.3-0.6-0.3
			c-0.5,0-0.7,0.2-0.8,0.7l-0.7,4.2v0.2c0,0.2,0.1,0.5,0.2,0.6s0.4,0.3,0.6,0.3c0.1,0,0.2,0,0.3,0l0.7-0.2c0.6,1.8,1.7,3.2,3.2,4.4
			c1.5,1.1,3.2,1.7,5.2,1.7s3.7-0.6,5.2-1.7c1.5-1.1,2.6-2.6,3.2-4.4l0.7,0.2c0.1,0,0.2,0,0.3,0c0.2,0,0.4-0.1,0.6-0.3
			s0.2-0.4,0.2-0.6v-0.2L35.5,18.7z M25.2,11.5c-0.2-0.3-0.4-0.6-0.4-0.9s0.1-0.6,0.4-0.9c0.2-0.2,0.5-0.4,0.9-0.4
			c0.3,0,0.6,0.1,0.9,0.4c0.2,0.2,0.4,0.5,0.4,0.9c0,0.4-0.1,0.7-0.4,0.9c-0.2,0.2-0.5,0.4-0.9,0.4C25.7,11.9,25.4,11.7,25.2,11.5z"
			/>
	</g>
</g>
<circle class="st4" cx="26" cy="18.6" r="14.6"/>
<circle class="st5" cx="26" cy="18.6" r="13.3"/>
<g class="st2">
	<path class="st6" d="M26,9.9c-2.2,2.9-6.2,8.8-6.2,11.5c0,3.4,2.8,6.2,6.2,6.2c3.4,0,6.2-2.8,6.2-6.2C32.2,18.7,28.2,12.8,26,9.9z
		 M26,25.9c-0.5,0-0.8-0.4-0.8-0.8c0-0.5,0.4-0.8,0.8-0.8c1.6,0,2.9-1.3,2.9-2.9c0-0.5,0.4-0.8,0.8-0.8c0.5,0,0.8,0.4,0.8,0.8
		C30.5,23.9,28.5,25.9,26,25.9z"/>
	<path class="st7" d="M26.7,8c-0.2-0.2-0.4-0.3-0.7-0.3c-0.3,0-0.5,0.1-0.7,0.3c-0.7,0.9-7.3,9.3-7.3,13.4c0,4.4,3.6,7.9,7.9,7.9
		c4.4,0,7.9-3.6,7.9-7.9C33.9,17.3,27.4,8.9,26.7,8z M26,27.6c-3.4,0-6.2-2.8-6.2-6.2c0-2.7,4-8.6,6.2-11.5
		c2.2,2.9,6.2,8.8,6.2,11.5C32.2,24.8,29.4,27.6,26,27.6z"/>
	<path class="st7" d="M29.7,20.6c-0.5,0-0.8,0.4-0.8,0.8c0,1.6-1.3,2.9-2.9,2.9c-0.5,0-0.8,0.4-0.8,0.8c0,0.5,0.4,0.8,0.8,0.8
		c2.5,0,4.5-2,4.5-4.5C30.5,20.9,30.2,20.6,29.7,20.6z"/>
</g>
<g class="st2">
	<g class="st8">
		<g>
			<path class="st9" d="M35.1,21.8c-0.7,0-1.3-0.3-1.8-0.8c-0.1-0.1-0.3-0.2-0.5-0.2s-0.4,0.1-0.5,0.2c-0.4,0.5-1.1,0.8-1.8,0.8
				c-0.7,0-1.3-0.3-1.8-0.8c-0.1-0.1-0.3-0.2-0.5-0.2s-0.4,0.1-0.5,0.2c-0.4,0.5-1.1,0.8-1.8,0.8c-0.7,0-1.3-0.3-1.8-0.8
				c-0.1-0.1-0.3-0.2-0.5-0.2s-0.4,0.1-0.5,0.2c-0.4,0.5-1.1,0.8-1.8,0.8s-1.3-0.3-1.8-0.8c-0.1-0.1-0.3-0.2-0.5-0.2
				s-0.4,0.1-0.5,0.2c-0.4,0.5-1.1,0.8-1.8,0.8c-0.4,0-0.6,0.3-0.6,0.6c0,0.4,0.3,0.6,0.6,0.6c0.7,0,1.5-0.2,2-0.6
				c0.1-0.1,0.1-0.1,0.2-0.2c0.1,0.1,0.1,0.1,0.2,0.2c0.6,0.4,1.3,0.6,2,0.6s1.5-0.2,2-0.6c0.1-0.1,0.1-0.1,0.2-0.2
				c0.1,0.1,0.1,0.1,0.2,0.2c0.6,0.4,1.3,0.6,2,0.6s1.5-0.2,2-0.6c0.1-0.1,0.1-0.1,0.2-0.2c0.1,0.1,0.1,0.1,0.2,0.2
				c0.6,0.4,1.3,0.6,2,0.6c0.7,0,1.5-0.2,2-0.6c0.1-0.1,0.1-0.1,0.2-0.2c0.1,0.1,0.1,0.1,0.2,0.2c0.6,0.4,1.3,0.6,2,0.6
				c0.4,0,0.6-0.3,0.6-0.6C35.7,22.1,35.4,21.8,35.1,21.8z"/>
			<path class="st9" d="M35.1,18.4c-0.7,0-1.3-0.3-1.8-0.8c-0.1-0.1-0.3-0.2-0.5-0.2s-0.4,0.1-0.5,0.2c-0.4,0.5-1.1,0.8-1.8,0.8
				c-0.7,0-1.3-0.3-1.8-0.8c-0.1-0.1-0.3-0.2-0.5-0.2s-0.4,0.1-0.5,0.2c-0.4,0.5-1.1,0.8-1.8,0.8c-0.7,0-1.3-0.3-1.8-0.8
				c-0.1-0.1-0.3-0.2-0.5-0.2s-0.4,0.1-0.5,0.2c-0.4,0.5-1.1,0.8-1.8,0.8s-1.3-0.3-1.8-0.8c-0.1-0.1-0.3-0.2-0.5-0.2
				s-0.4,0.1-0.5,0.2c-0.4,0.5-1.1,0.8-1.8,0.8c-0.4,0-0.6,0.3-0.6,0.6c0,0.4,0.3,0.6,0.6,0.6c0.7,0,1.5-0.2,2-0.6
				c0.1-0.1,0.1-0.1,0.2-0.2c0.1,0.1,0.1,0.1,0.2,0.2c0.6,0.4,1.3,0.6,2,0.6s1.5-0.2,2-0.6c0.1-0.1,0.1-0.1,0.2-0.2
				c0.1,0.1,0.1,0.1,0.2,0.2c0.6,0.4,1.3,0.6,2,0.6s1.5-0.2,2-0.6c0.1-0.1,0.1-0.1,0.2-0.2c0.1,0.1,0.1,0.1,0.2,0.2
				c0.6,0.4,1.3,0.6,2,0.6c0.7,0,1.5-0.2,2-0.6c0.1-0.1,0.1-0.1,0.2-0.2c0.1,0.1,0.1,0.1,0.2,0.2c0.6,0.4,1.3,0.6,2,0.6
				c0.4,0,0.6-0.3,0.6-0.6C35.7,18.7,35.4,18.4,35.1,18.4z"/>
			<path class="st9" d="M16.9,16.3c0.7,0,1.5-0.2,2-0.6c0.1-0.1,0.1-0.1,0.2-0.2c0.1,0.1,0.1,0.1,0.2,0.2c0.6,0.4,1.3,0.6,2,0.6
				s1.5-0.2,2-0.6c0.1-0.1,0.1-0.1,0.2-0.2c0.1,0.1,0.1,0.1,0.2,0.2c0.6,0.4,1.3,0.6,2,0.6s1.5-0.2,2-0.6c0.1-0.1,0.1-0.1,0.2-0.2
				c0.1,0.1,0.1,0.1,0.2,0.2c0.6,0.4,1.3,0.6,2,0.6c0.7,0,1.5-0.2,2-0.6c0.1-0.1,0.1-0.1,0.2-0.2c0.1,0.1,0.1,0.1,0.2,0.2
				c0.6,0.4,1.3,0.6,2,0.6c0.4,0,0.6-0.3,0.6-0.6S35.4,15,35.1,15c-0.7,0-1.3-0.3-1.8-0.8C33.2,14,33,14,32.8,14s-0.4,0.1-0.5,0.2
				c-0.4,0.5-1.1,0.8-1.8,0.8c-0.7,0-1.3-0.3-1.8-0.8C28.6,14,28.5,14,28.3,14c-0.2,0-0.4,0.1-0.5,0.2C27.3,14.7,26.7,15,26,15
				c-0.7,0-1.3-0.3-1.8-0.8C24.1,14,23.9,14,23.7,14c-0.2,0-0.4,0.1-0.5,0.2c-0.4,0.5-1.1,0.8-1.8,0.8s-1.3-0.3-1.8-0.8
				C19.6,14,19.4,14,19.2,14s-0.4,0.1-0.5,0.2c-0.4,0.5-1.1,0.8-1.8,0.8c-0.4,0-0.6,0.3-0.6,0.6S16.6,16.3,16.9,16.3z"/>
		</g>
	</g>
</g>
<path class="st10" d="M32.6,17.6c0.3-0.1,0.6-0.5,0.6-0.9c0-0.5-0.4-0.9-0.9-0.9h-3.2l-1.8-2.5l0,0c0.1-0.5-0.1-1-0.4-1.4
	c-0.3-0.4-0.7-0.6-1.2-0.7c-0.5-0.1-1,0.1-1.4,0.4V9.5c0-0.4-0.3-0.7-0.7-0.7h-1.8c-0.4,0-0.7,0.3-0.7,0.7v7.8c0,1,0.7,1.7,1.7,1.8
	l-0.1,0.3l-1.1,4.2l-2.5,3.3c-0.4,0.5-0.3,1.2,0.2,1.6c0.2,0.1,0.4,0.2,0.7,0.2c0.3,0,0.7-0.2,0.9-0.5l2.6-3.5
	c0.1-0.1,0.1-0.2,0.2-0.4l0.8-2.8l2.1,1.9l-0.3,4.1c0,0.6,0.4,1.2,1,1.2c0,0,0.1,0,0.1,0c0.6,0,1.1-0.5,1.1-1l0.3-4.6
	c0-0.3-0.1-0.7-0.4-0.9l-2.1-2l0.6-4.2l0.9,1.3c0.2,0.2,0.5,0.4,0.8,0.4h3.3l0.1,10.7c0,0.2,0.2,0.4,0.4,0.4c0.2,0,0.4-0.2,0.4-0.4
	L32.6,17.6z"/>
<circle class="st10" cx="26.7" cy="9.2" r="1.8"/>
<path class="st4" d="M33.4,19c-0.8-1.2-1.2-2.1-1.3-3.5c-0.1-1.1,0.4-2.4,0.4-2.4c-0.6,0.4-0.6,0.3-1,0.7c-2,1.6-2.5,3.3-2.6,3.5
	c0,0,0,0,0,0l0,0c0,0,1.5-6-2.8-8.8C25.8,8.1,25,7.6,25,7.6s2.1,5.2-1.7,8.3c-0.8-3.1-4.7-3.1-4.7-3.1s0.3,1.1,0.4,1.3
	c0.6,3.3-1.3,4.4-1.7,7.5c0-0.4,0-0.2,0,0c0,0,0,0,0,0c0,0,0,0,0,0c0,0,0,0,0,0c-0.3,2.5,0.9,4.4,2.7,5.7c0.1-0.9,0.4-1.7,0.9-2.5
	c0.6-0.8,0.9-1.4,0.9-2.5c0.1-0.8-0.3-1.6-0.3-1.6c0.4,0.3,0.4,0.2,0.7,0.5c1.1,0.9,1.6,1.8,1.7,2.2c0,0,0,0,0,0
	c-0.2-0.9-0.7-4.2,2-5.9c0.2-0.2,0.8-0.5,0.8-0.5s-1.5,3.3,1.8,6c-0.1-1.1,0.3-2.1,1.1-2.9c0.4-0.4,1.2-0.6,1.2-0.6
	s-0.2,0.7-0.2,0.9c-0.4,2.3,1.5,4.1,1.1,6.3c-0.1,0.4-0.2,0.8-0.3,1.2h0.2c1-0.5,1.9-1.2,2.5-2.1C35.4,23.7,34.8,21,33.4,19z"/>
<path class="st11" d="M33.5,19c-0.8-1.2-1.2-2.1-1.3-3.5c-0.1-1.1,0.4-2.4,0.4-2.4c-0.6,0.4-0.6,0.3-1,0.7c-2,1.6-2.5,3.3-2.6,3.5
	c0,0,0,0,0,0l0,0c0,0,1.5-6-2.8-8.8c-0.4-0.2-1.2-0.7-1.2-0.7s2.1,5.2-1.7,8.3c-0.8-3.1-4.7-3.1-4.7-3.1s0.3,1.1,0.4,1.3
	c0.6,3.3-1.3,4.4-1.7,7.5c0-0.4,0-0.2,0,0c0,0,0,0,0,0c0,0,0,0,0,0c0,0,0,0,0,0c-0.3,2.5,0.9,4.4,2.7,5.7c0.1-0.9,0.4-1.7,0.9-2.5
	c0.6-0.8,0.9-1.4,0.9-2.5c0.1-0.8-0.3-1.6-0.3-1.6c0.4,0.3,0.4,0.2,0.7,0.5c1.1,0.9,1.6,1.8,1.7,2.2c0,0,0,0,0,0
	c-0.2-0.9-0.7-4.2,2-5.9c0.2-0.2,0.8-0.5,0.8-0.5s-1.5,3.3,1.8,6c-0.1-1.1,0.3-2.1,1.1-2.9c0.4-0.4,1.2-0.6,1.2-0.6
	s-0.2,0.7-0.2,0.9c-0.4,2.3,1.5,4.1,1.1,6.3c-0.1,0.4-0.2,0.8-0.3,1.2h0.2c1-0.5,1.9-1.2,2.5-2.1C35.5,23.7,34.9,21,33.5,19z"/>
</svg>
