<?xml version="1.0" encoding="utf-8"?>
<!-- Generator: Adobe Illustrator 21.0.0, SVG Export Plug-In . SVG Version: 6.00 Build 0)  -->
<svg version="1.1" id="Capa_1" xmlns="http://www.w3.org/2000/svg" xmlns:xlink="http://www.w3.org/1999/xlink" x="0px" y="0px"
	 viewBox="0 0 52 52" style="enable-background:new 0 0 52 52;" xml:space="preserve">
<style type="text/css">
	.st0{display:none;fill:#FFFFFF;}
	.st1{display:none;}
	.st2{display:inline;fill:#FFFFFF;}
	.st3{fill:#8C211F;}
	.st4{fill:#EEC733;}
	.st5{fill:#FFFFFF;}
	.st6{fill:#0E0C0D;}
</style>
<path class="st0" d="M26,5.5c-7.3,0-13.2,5.9-13.2,13.2S18.7,31.9,26,31.9S39.2,26,39.2,18.7S33.3,5.5,26,5.5z M26.7,7.4
	c1,0,1.8,0.8,1.8,1.8S27.7,11,26.7,11s-1.8-0.8-1.8-1.8C24.9,8.2,25.7,7.4,26.7,7.4z M32.3,28.8c-0.2,0-0.4-0.2-0.4-0.4l-0.1-10.7
	h-3.3c-0.3,0-0.6-0.1-0.8-0.4L26.9,16l-0.6,4.2l2.1,2c0.3,0.2,0.4,0.6,0.4,0.9l-0.3,4.6c0,0.6-0.5,1-1.1,1h-0.1
	c-0.6,0-1.1-0.6-1-1.2l0.3-4.1l-2.1-1.9l-0.8,2.8c0,0.1-0.1,0.3-0.2,0.4l-2.6,3.5c-0.2,0.3-0.6,0.5-0.9,0.5c-0.2,0-0.5-0.1-0.7-0.2
	c-0.5-0.4-0.6-1.1-0.2-1.6l2.5-3.3l1.1-4.2l0.1-0.3c-0.9-0.1-1.7-0.9-1.7-1.8V9.5c0-0.4,0.3-0.7,0.7-0.7h1.8c0.4,0,0.7,0.3,0.7,0.7
	v2.1c0.4-0.3,0.9-0.5,1.4-0.4s0.9,0.3,1.2,0.7c0.3,0.4,0.4,0.9,0.4,1.4l0,0l1.8,2.5h3.2c0.5,0,0.9,0.4,0.9,0.9
	c0,0.4-0.2,0.7-0.6,0.9l0.1,10.8C32.7,28.6,32.5,28.8,32.3,28.8z"/>
<g>
	<g class="st1">
		<path class="st2" d="M35.5,18.7c-0.1-0.5-0.4-0.7-0.8-0.7c-0.2,0-0.5,0.1-0.6,0.3L31,21.2c-0.1,0.1-0.1,0.1-0.1,0.2
			c-0.2,0.2-0.2,0.4-0.2,0.6s0.2,0.4,0.3,0.6c0.1,0.1,0.1,0.1,0.2,0.1L32,23c-0.4,1.1-1,2-2,2.9c-1,0.8-2,1.4-3.1,1.6v-14
			c0.6-0.2,1.1-0.6,1.6-1.2c0.4-0.6,0.7-1.1,0.7-1.7c0-0.8-0.3-1.6-0.9-2.2S27,7.5,26.1,7.5s-1.6,0.3-2.2,0.9S23,9.8,23,10.6
			c0,0.6,0.2,1.2,0.6,1.7c0.4,0.6,0.9,1,1.5,1.2v14c-1.1-0.2-2.2-0.7-3.2-1.6s-1.6-1.8-2-2.9l0.8-0.3c0.1,0,0.2-0.1,0.2-0.1
			c0.2-0.2,0.3-0.3,0.3-0.6s0-0.5-0.2-0.6c-0.1-0.1-0.1-0.2-0.1-0.2l-3.1-2.9c-0.2-0.2-0.4-0.3-0.6-0.3c-0.5,0-0.7,0.2-0.8,0.7
			l-0.7,4.2v0.2c0,0.2,0.1,0.5,0.2,0.6s0.4,0.3,0.6,0.3c0.1,0,0.2,0,0.3,0l0.7-0.2c0.6,1.8,1.7,3.2,3.2,4.4c1.5,1.1,3.2,1.7,5.2,1.7
			s3.7-0.6,5.2-1.7s2.6-2.6,3.2-4.4L35,24c0.1,0,0.2,0,0.3,0c0.2,0,0.4-0.1,0.6-0.3s0.2-0.4,0.2-0.6v-0.2L35.5,18.7z M25.2,11.5
			c-0.2-0.3-0.4-0.6-0.4-0.9s0.1-0.6,0.4-0.9c0.2-0.2,0.5-0.4,0.9-0.4c0.3,0,0.6,0.1,0.9,0.4c0.2,0.2,0.4,0.5,0.4,0.9
			s-0.1,0.7-0.4,0.9c-0.2,0.2-0.5,0.4-0.9,0.4S25.4,11.7,25.2,11.5z"/>
	</g>
</g>
<g>
	<path class="st3" d="M30.4,1.2c1.1,0.3,2.2,0.7,3.3,1.2C32.6,1.9,31.5,1.5,30.4,1.2z"/>
	<path class="st3" d="M27.3,0.7c0.2,0,0.5,0,0.7,0.1C27.8,0.8,27.6,0.7,27.3,0.7z"/>
	<path class="st3" d="M28.9,0.9c0.3,0,0.5,0.1,0.8,0.1C29.4,1,29.2,0.9,28.9,0.9z"/>
	<path class="st3" d="M25.8,0.7c0.2,0,0.4,0,0.6,0C26.2,0.7,26,0.7,25.8,0.7z"/>
	<path class="st3" d="M20.8,1.4C20.9,1.4,20.9,1.4,20.8,1.4C20.9,1.4,20.9,1.4,20.8,1.4z"/>
	<path class="st3" d="M24.2,0.7c0.1,0,0.3,0,0.4,0C24.5,0.7,24.3,0.7,24.2,0.7z"/>
	<path class="st3" d="M16,3.7c0.1,0,0.1-0.1,0.2-0.1C16.2,3.6,16.1,3.6,16,3.7z"/>
	<path class="st3" d="M38.7,5.9c-1-1-2.2-1.9-3.4-2.6v5.9c2.4,2.4,4,5.8,4,9.5s-1.5,7-4,9.5v10.5L26,52L11.6,31.2
		C9.3,28.1,8.1,24.1,8.1,20c0.1,4.1,1.2,8.1,3.5,11.2L26,52l14.4-20.7C45.7,24.1,45,12.2,38.7,5.9z"/>
	<path class="st3" d="M17.5,2.8c0.1,0,0.2-0.1,0.3-0.1C17.7,2.7,17.6,2.7,17.5,2.8z"/>
	<path class="st3" d="M14.7,4.7C14.7,4.7,14.7,4.7,14.7,4.7C14.7,4.7,14.7,4.7,14.7,4.7z"/>
	<path class="st3" d="M34.1,2.6c0.3,0.2,0.6,0.3,0.9,0.5C34.7,2.9,34.4,2.7,34.1,2.6z"/>
	<path class="st3" d="M19.1,2c0.1,0,0.2-0.1,0.2-0.1C19.2,2,19.2,2,19.1,2z"/>
	<path class="st4" d="M26,52l9.3-13.4V28.1c-2.4,2.4-5.7,3.8-9.3,3.8c-7.3,0-13.3-6-13.3-13.3c0-7.3,6-13.3,13.3-13.3
		c3.6,0,6.9,1.5,9.3,3.8V3.3v0c-0.1-0.1-0.2-0.1-0.3-0.2c-0.3-0.2-0.6-0.4-0.9-0.5c-0.1-0.1-0.3-0.1-0.4-0.2
		c-1.1-0.5-2.2-0.9-3.3-1.2c-0.2-0.1-0.5-0.1-0.7-0.2c-0.3-0.1-0.5-0.1-0.8-0.1c-0.3,0-0.6-0.1-0.8-0.1c-0.2,0-0.5,0-0.7-0.1
		c-0.3,0-0.6,0-0.9,0c-0.2,0-0.4,0-0.6,0c-0.4,0-0.8,0-1.2,0.1c-0.1,0-0.3,0-0.4,0c-1.1,0.1-2.2,0.3-3.3,0.6c0,0,0,0-0.1,0
		c-0.5,0.2-1,0.3-1.5,0.5C19.2,2,19.2,2,19.1,2c-0.4,0.2-0.9,0.4-1.3,0.6c-0.1,0-0.2,0.1-0.3,0.1c-0.4,0.2-0.9,0.5-1.3,0.8
		c-0.1,0-0.1,0.1-0.2,0.1c-0.5,0.3-0.9,0.6-1.4,1c0,0,0,0,0,0c-0.5,0.4-0.9,0.8-1.4,1.2C9.8,9.4,8,14.8,8.1,20
		c0.1,4.1,1.2,8.1,3.5,11.2L26,52z"/>
	<path class="st5" d="M12.7,18.6c0,7.3,6,13.3,13.3,13.3c3.6,0,6.9-1.5,9.3-3.8c2.4-2.4,4-5.8,4-9.5s-1.5-7-4-9.5
		c-2.4-2.4-5.7-3.8-9.3-3.8C18.7,5.3,12.7,11.3,12.7,18.6z M26.5,8.6c0,0,0.1,0,0.1,0c0,0,0,0,0,0l0,0L26.2,9v0.4
		c0,0.1,0,0.2,0.1,0.2c0.9,0.1,1.3,1,1.3,2.6c0,1.7-0.5,2.9-0.1,3.6c0.3,0.6,0.5,0.6,1,0.8c0,0,0.9,0.3,0.9,1.5
		c0,0.9-0.9,1.2-0.9,1.2s-2,0.7-2.3,0.8c-0.3,0.1-0.9,0.3-0.9,0.6c0,0.5,1.5,0.7,1.5,0.7s3.9,1,4.9,1.3s1.4,1.2,1.4,2
		s-0.7,2.4-3.5,2.5c-3.5,0.2-7.1,0-8.6-0.2c-2.2-0.3-3-0.3-3-0.4c0-0.1,3-0.6,3-0.6s4.6-0.8,5.2-0.9s0.8-0.1,0.8-0.5
		c0-0.3-0.5-0.4-0.8-0.5c-0.4-0.1-3.9-1.2-3.9-1.2s-2-0.6-2-2.6c0-1.4,1.5-2,1.8-2.1c0.4-0.2,1.9-0.7,2.3-0.8c0,0,0.6-0.2,0.6-0.7
		c0-0.5-0.3-0.8-0.4-1.2c-0.1-0.4-0.3-1.7-0.3-2.7c0-0.7,0.1-2,0.4-2.7c0.2-0.3,0.6-0.6,1.1-0.6C26,9.6,26,9.5,26,9.5V9.1l-0.4-0.4
		c0,0,0-0.1,0-0.1c0,0,0.1,0,0.1,0l0.3,0.3L26.5,8.6z"/>
	<polygon class="st5" points="23.6,20.1 23.6,20.1 23.2,19.6 22.8,20.1 22.9,20.1 	"/>
	<polygon class="st5" points="24.1,19.5 23.7,19.1 23.3,19.5 23.7,20 	"/>
	<rect x="22.9" y="18.6" transform="matrix(0.7071 -0.7072 0.7072 0.7071 -6.6226 21.9621)" class="st5" width="0.6" height="0.7"/>
	<path class="st5" d="M22.7,18.9l0.4-0.5c-0.2,0.1-0.4,0.2-0.6,0.2L22.7,18.9z"/>
	<polygon class="st5" points="23.4,18.3 23.3,18.4 23.7,18.9 24.1,18.5 23.8,18.1 	"/>
	<polygon class="st5" points="25.6,19 25.1,18.6 24.7,19 25.1,19.5 	"/>
	<path class="st5" d="M27.1,19.4l-0.3-0.3l-0.5,0.5l0.1,0.1C26.6,19.5,26.8,19.5,27.1,19.4z"/>
	<polygon class="st5" points="24.6,20.1 24.6,20.1 24.2,19.6 23.8,20 23.8,20.1 	"/>
	<polygon class="st5" points="27.5,19.3 27.7,19.1 27.3,18.6 26.8,19 27.2,19.4 	"/>
	<rect x="25.9" y="18.7" transform="matrix(0.7071 -0.7072 0.7072 0.7071 -5.7876 24.1055)" class="st5" width="0.7" height="0.7"/>
	<polygon class="st5" points="25.1,19.5 24.6,19.1 24.2,19.5 24.7,20 	"/>
	<polygon class="st5" points="26.2,18.5 25.7,18 25.3,18.5 25.7,19 	"/>
	<polygon class="st5" points="23.8,19 24.2,19.5 24.6,19 24.2,18.6 	"/>
	<polygon class="st5" points="27.8,19.2 27.7,19.2 27.8,19.2 	"/>
	<path class="st5" d="M25.5,16.8c0,0.1,0,0.2-0.1,0.3L25.5,16.8L25.5,16.8z"/>
	<polygon class="st5" points="21.8,20 21.9,20.1 22.6,20.1 22.7,20 22.2,19.5 	"/>
	<polygon class="st5" points="26.7,17.9 27.2,17.4 26.8,17 26.3,17.4 	"/>
	<polygon class="st5" points="26.6,16.7 26.7,16.8 26.8,16.7 	"/>
	<rect x="26.4" y="18.2" transform="matrix(0.7071 -0.7071 0.7071 0.7071 -5.2553 24.324)" class="st5" width="0.6" height="0.7"/>
	<polygon class="st5" points="25.7,19.1 25.3,19.5 25.6,19.9 25.9,19.8 26.2,19.5 	"/>
	<polygon class="st5" points="23.1,19.5 22.7,19 22.3,19.5 22.7,19.9 	"/>
	<path class="st5" d="M24.6,20.3h-3.5c-0.2,0-0.2,0.6,0,0.6h3.5C24.8,20.9,25.1,20.2,24.6,20.3z"/>
	<polygon class="st5" points="25.7,16.8 25.8,16.7 25.6,16.7 	"/>
	<polygon class="st5" points="25.7,17.8 26.1,17.4 25.7,17 25.3,17.4 	"/>
	<polygon class="st5" points="25.8,17.9 26.2,18.4 26.6,17.9 26.2,17.5 	"/>
	<path class="st5" d="M24.7,17.9l0.3-0.3C24.8,17.7,24.7,17.8,24.7,17.9L24.7,17.9z"/>
	<polygon class="st5" points="25.2,18.4 25.6,17.9 25.2,17.5 24.8,18 	"/>
	<polygon class="st5" points="24.6,19 25.1,18.5 24.7,18 24.2,18.5 	"/>
	<polygon class="st5" points="27.7,17.9 27.2,17.5 26.8,17.9 27.2,18.4 	"/>
	<polygon class="st5" points="25.9,16.7 25.7,16.9 26.2,17.3 26.6,16.9 26.5,16.7 	"/>
	<polygon class="st5" points="29.7,26.2 30.1,25.7 29.7,25.3 29.2,25.8 	"/>
	<polygon class="st5" points="25.4,27.1 25.2,26.8 25,27.1 25.3,27.1 	"/>
	<polygon class="st5" points="24.8,27.1 25.1,26.8 24.7,26.3 24.3,26.8 24.6,27.1 	"/>
	<polygon class="st5" points="25.9,27.1 26.2,26.8 25.7,26.3 25.3,26.8 25.6,27.1 	"/>
	<polygon class="st5" points="23.9,27.1 24.2,26.8 23.7,26.2 23.3,26.7 23.6,27.1 	"/>
	<polygon class="st5" points="24.2,26.8 24,27.1 24.5,27.1 	"/>
	<polygon class="st5" points="27.2,26.9 27,27.1 27.4,27.1 	"/>
	<polygon class="st5" points="26.8,27.1 27.1,26.8 26.8,26.4 26.3,26.8 26.6,27.1 	"/>
	<polygon class="st5" points="27.6,26.3 27.2,25.9 26.8,26.3 27.2,26.7 	"/>
	<rect x="27.4" y="18.2" transform="matrix(0.7071 -0.7071 0.7071 0.7071 -4.9344 25.0561)" class="st5" width="0.7" height="0.7"/>
	<polygon class="st5" points="24.8,26.2 25.2,26.7 25.6,26.2 25.2,25.7 	"/>
	<polygon class="st5" points="25.3,25.6 25.7,26.1 26.1,25.7 25.9,25.5 	"/>
	<path class="st5" d="M24.7,26.2l0.4-0.5c-0.3,0-0.5,0.1-0.7,0.1L24.7,26.2z"/>
	<polygon class="st5" points="23.2,26.8 22.9,27 23.4,27.1 	"/>
	<polygon class="st5" points="26.2,25.6 26.4,25.4 26.1,25.5 	"/>
	<polygon class="st5" points="22.9,26.1 22.7,26.2 23.2,26.6 23.6,26.2 23.4,26 	"/>
	<polygon class="st5" points="23.6,26.1 23.8,25.9 23.5,26 	"/>
	<polygon class="st5" points="24,25.9 23.7,26.2 24.2,26.7 24.6,26.2 24.2,25.9 	"/>
	<polygon class="st5" points="26.7,26.3 26.2,25.8 25.8,26.2 26.2,26.7 	"/>
	<polygon class="st5" points="28.6,26.3 28.2,25.8 27.7,26.2 28.2,26.7 	"/>
	<path class="st5" d="M26.8,25.3l0.3,0.4l0.4-0.4l-0.1-0.1C27.3,25.2,27.1,25.3,26.8,25.3z"/>
	<path class="st5" d="M21,26.7l-0.3-0.3c-0.6,0.1-0.9,0.2-0.9,0.3c0,0.1,0.4,0.2,1,0.3L21,26.7z"/>
	<path class="st5" d="M27.7,25.1L27.7,25.1l0.1,0L27.7,25.1C27.7,25.1,27.7,25.1,27.7,25.1z"/>
	<polygon class="st5" points="27.7,26.2 28.1,25.8 27.7,25.3 27.3,25.8 	"/>
	<polygon class="st5" points="26.2,26.9 26,27.1 26.5,27.1 	"/>
	<path class="st5" d="M28.1,24.8h4.3c0.3,0,0.2-0.7,0-0.7H28C27.6,24.2,27.9,24.8,28.1,24.8z"/>
	<polygon class="st5" points="30,26.9 30.1,26.8 29.7,26.3 29.2,26.8 29.4,26.9 29.8,26.9 	"/>
	<polygon class="st5" points="21.1,26.8 21,26.9 21.3,26.9 	"/>
	<polygon class="st5" points="27.9,25.1 27.7,25.3 28.1,25.7 28.5,25.2 28.4,25.1 	"/>
	<polygon class="st5" points="29.1,26.9 29.1,27 29.2,27 	"/>
	<polygon class="st5" points="28.2,26.9 28,27 28.3,27 	"/>
	<polygon class="st5" points="29.2,25.8 28.8,26.3 29.2,26.7 29.6,26.2 	"/>
	<polygon class="st5" points="28.9,27 29.1,26.8 28.7,26.4 28.2,26.8 28.4,27 	"/>
	<polygon class="st5" points="28.6,26.2 29.1,25.8 28.6,25.3 28.2,25.8 	"/>
	<polygon class="st5" points="28.8,25.1 28.7,25.2 29.1,25.7 29.6,25.2 29.4,25.1 	"/>
	<polygon class="st5" points="28.7,25.1 28.7,25.1 28.6,25.1 	"/>
	<polygon class="st5" points="27.9,27 28.1,26.8 27.7,26.3 27.3,26.8 27.5,27.1 	"/>
	<path class="st5" d="M28.3,18.5L27.9,19l0,0.1c0.3-0.1,0.6-0.2,0.7-0.3L28.3,18.5z"/>
	<polygon class="st5" points="26.2,19.6 26.2,19.7 26.2,19.7 	"/>
	<path class="st5" d="M29,18.2L28.8,18l-0.4,0.5l0.3,0.4c0.1-0.1,0.3-0.3,0.3-0.4C29,18.4,29,18.3,29,18.2z"/>
	<path class="st5" d="M24.8,20.1h0.4c0.1,0,0.2-0.1,0.3-0.1l-0.3-0.3L24.8,20.1z"/>
	<path class="st5" d="M21,20.1h0.5l0.1-0.1l-0.4-0.5C21.1,19.7,21,19.8,21,20.1z"/>
	<path class="st5" d="M27.8,16.9l0.5,0.5l0.3-0.3c-0.2-0.1-0.4-0.3-0.6-0.3L27.8,16.9z"/>
	<path class="st5" d="M28.9,18l0.2,0.2c0-0.1,0-0.3,0-0.3L28.9,18z"/>
	<path class="st5" d="M28.4,17.4l0.5,0.5l0.2-0.2c-0.1-0.3-0.2-0.4-0.4-0.6L28.4,17.4z"/>
	<polygon class="st5" points="21.7,20 21.6,20.1 21.8,20.1 	"/>
	<polygon class="st5" points="26.5,25.4 26.2,25.7 26.7,26.2 27.1,25.8 26.7,25.4 	"/>
	<path class="st5" d="M27.1,15.9h-1.5c-0.3,0,0,0.6,0.2,0.6h1.8C27.8,16.4,27.3,15.9,27.1,15.9z"/>
	<polygon class="st5" points="27.7,16.8 27.9,16.7 27.7,16.7 	"/>
	<polygon class="st5" points="28.8,17.9 28.3,17.5 27.9,17.9 28.3,18.4 	"/>
	<polygon class="st5" points="27,16.7 26.8,16.8 27.2,17.3 27.7,16.8 27.5,16.7 	"/>
	<path class="st5" d="M24.1,18.4l0.5-0.5l-0.1-0.1c-0.2,0.1-0.4,0.2-0.7,0.3L24.1,18.4z"/>
	<path class="st5" d="M21.7,19.9l0.4-0.4L21.7,19c-0.2,0.1-0.3,0.3-0.5,0.4L21.7,19.9z"/>
	<path class="st5" d="M22.2,19.4l0.4-0.4l-0.3-0.3c-0.2,0-0.4,0.2-0.6,0.3L22.2,19.4z"/>
	<polygon class="st5" points="27.3,17.4 27.8,17.8 28.2,17.4 27.7,16.9 	"/>
	<polygon class="st5" points="29.7,25.2 29.7,25.1 29.6,25.1 	"/>
	<polygon class="st5" points="21.9,27 22.1,26.7 21.6,26.2 21.2,26.7 21.4,26.9 	"/>
	<polygon class="st5" points="29.9,25.1 29.7,25.3 30.2,25.7 30.5,25.3 30.3,25.1 	"/>
	<polygon class="st5" points="21.1,26.6 21.5,26.2 20.9,26.3 	"/>
	<polygon class="st5" points="30.5,25.2 30.7,25.1 30.5,25.1 	"/>
	<polygon class="st5" points="22.6,26.2 22.6,26.1 21.8,26.2 22.2,26.6 	"/>
	<polygon class="st5" points="22.8,27 23.1,26.7 22.7,26.3 22.3,26.8 22.5,27 	"/>
	<polygon class="st5" points="22.2,26.8 22,27 22.4,27 	"/>
	<polygon class="st5" points="31,25.8 30.5,25.3 30.2,25.7 30.6,26.2 	"/>
	<polygon class="st5" points="31.6,25.1 31.6,25.1 31.7,25.1 	"/>
	<polygon class="st5" points="29.7,26.3 30.2,26.7 30.6,26.2 30.2,25.8 	"/>
	<path class="st5" d="M31.7,25.2l0.4,0.5c0.1-0.1,0.3-0.2,0.4-0.5c0,0,0,0,0-0.1h-0.8L31.7,25.2z"/>
	<polygon class="st5" points="30.8,25.1 30.6,25.3 31.1,25.7 31.5,25.2 31.4,25.1 	"/>
	<path class="st5" d="M31.1,25.8l0.5,0.5c0.1-0.1,0.3-0.3,0.4-0.4l0-0.1l-0.4-0.5L31.1,25.8z"/>
	<path class="st5" d="M31,26.7l-0.3-0.4l-0.4,0.5l0.1,0.1C30.6,26.8,30.8,26.8,31,26.7z"/>
	<path class="st5" d="M31.5,26.4l-0.5-0.5l-0.3,0.4l0.4,0.4C31.3,26.6,31.4,26.5,31.5,26.4z"/>
	<path class="st6" d="M25.6,8.6c0,0,0,0.1,0,0.1L26,9.1v0.4c0,0,0,0.1-0.1,0.2c-0.5,0-0.9,0.3-1.1,0.6c-0.3,0.7-0.4,2-0.4,2.7
		c0,1,0.2,2.3,0.3,2.7c0.1,0.4,0.4,0.6,0.4,1.2c0,0.5-0.6,0.7-0.6,0.7c-0.3,0.1-1.8,0.6-2.3,0.8c-0.3,0.1-1.8,0.7-1.8,2.1
		c0,2,2,2.6,2,2.6s3.5,1.1,3.9,1.2c0.3,0.1,0.8,0.2,0.8,0.5c0,0.3-0.2,0.4-0.8,0.5s-5.2,0.9-5.2,0.9s-3,0.5-3,0.6
		c0,0.1,0.8,0.2,3,0.4c1.5,0.2,5.1,0.3,8.6,0.2c2.8-0.1,3.5-1.7,3.5-2.5s-0.4-1.7-1.4-2s-4.9-1.3-4.9-1.3s-1.5-0.3-1.5-0.7
		c0-0.3,0.5-0.4,0.9-0.6c0.4-0.1,2.3-0.8,2.3-0.8s0.9-0.3,0.9-1.2c0-1.2-0.9-1.5-0.9-1.5c-0.5-0.2-0.7-0.2-1-0.8
		c-0.4-0.7,0.1-2,0.1-3.6c0-1.5-0.4-2.4-1.3-2.6c-0.1,0-0.1-0.1-0.1-0.2V9l0.3-0.4l0,0c0,0,0,0,0,0c0,0-0.1,0-0.1,0l-0.3,0.3
		l-0.3-0.3C25.7,8.5,25.7,8.5,25.6,8.6z M26.5,11C26.5,11,26.5,11,26.5,11C26.5,11,26.5,11,26.5,11c0-0.2,0.1-0.3,0.2-0.3
		s0.2,0.1,0.2,0.3s-0.1,0.4-0.2,0.4c-0.1,0-0.1,0-0.1-0.1c0,0.1,0,0.1,0,0.2c0,0-0.2,0-0.3-0.2c-0.1-0.1,0-0.2,0-0.3
		C26.3,10.9,26.4,10.9,26.5,11z M25.6,19.9l-0.3-0.4l0.4-0.5l0.5,0.5l-0.2,0.3L25.6,19.9z M21.1,20.3h3.5c0.6,0,0.2,0.6,0,0.6h-3.5
		C21,20.9,20.9,20.3,21.1,20.3z M24.8,11.4c0-0.1,0.1-0.1,0.2-0.1c0.1,0,0.2,0.2,0.2,0.3s-0.1,0.1-0.3,0
		C24.8,11.5,24.8,11.5,24.8,11.4z M26.5,11.9c0.1,0,0,0.3,0,0.4c-0.1,0.1-0.2,0.1-0.2,0.1c0-0.1,0-0.2,0-0.3c0,0,0,0,0,0
		c-0.1,0-0.1,0-0.2-0.1c0-0.1,0-0.2,0.1-0.3c0.1,0,0.2,0,0.3,0.1C26.5,11.8,26.4,11.9,26.5,11.9C26.4,11.9,26.5,11.9,26.5,11.9z
		 M22.3,19.5l0.4-0.4l0.5,0.5l-0.4,0.4L22.3,19.5z M22.7,20L22.7,20l-0.7,0.1L21.8,20l0.4-0.4L22.7,20z M25.9,12.1
		c0.1,0.1,0,0.2,0,0.3c-0.1,0-0.2,0-0.2-0.1c-0.1-0.1-0.1-0.3,0-0.4C25.7,11.9,25.9,12,25.9,12.1z M25.7,11.8c0-0.1,0.1-0.1,0.3-0.1
		c0.1,0,0.1,0.1,0.1,0.2C26,12,26,12,25.9,12C25.8,12,25.7,11.8,25.7,11.8z M25.4,11.9c-0.1,0-0.2-0.1-0.2-0.2
		c0-0.1,0.1-0.2,0.2-0.2c0.1,0,0.2,0.1,0.2,0.2C25.6,11.8,25.6,11.9,25.4,11.9z M25.4,12c0.1,0,0.2,0.2,0.2,0.4s-0.1,0.3-0.2,0.3
		c-0.1,0-0.2-0.1-0.2-0.3S25.3,12,25.4,12z M25.5,16.8L25.5,16.8L25.4,17C25.5,17,25.5,16.9,25.5,16.8z M26.8,17l0.4,0.5l-0.5,0.5
		l-0.4-0.5L26.8,17z M26.6,16.7h0.2H26.6L26.6,16.7z M26.7,18.1l0.5,0.5L26.8,19l-0.5-0.5L26.7,18.1z M26.2,18.4l-0.4-0.5l0.4-0.4
		l0.4,0.5L26.2,18.4z M26.8,17.9l0.5-0.5l0.5,0.5l-0.5,0.5L26.8,17.9z M26.2,17.3l-0.4-0.5l0.2-0.2h0.5l0.2,0.2L26.2,17.3z
		 M25.7,16.8l-0.1-0.1h0.3L25.7,16.8z M25.7,17l0.4,0.4l-0.4,0.5l-0.4-0.5L25.7,17z M25.6,17.9l-0.5,0.5L24.8,18l0.5-0.5L25.6,17.9z
		 M24.7,17.9L24.7,17.9c0-0.1,0.1-0.2,0.3-0.3L24.7,17.9z M24.7,18l0.4,0.5L24.6,19l-0.4-0.5L24.7,18z M24.6,19l-0.4,0.4L23.8,19
		l0.4-0.4L24.6,19z M23.7,18.9l-0.5-0.5l0.1-0.2l0.4-0.1l0.3,0.3L23.7,18.9z M23.6,19l-0.4,0.4L22.7,19l0.4-0.4L23.6,19z M22.7,18.9
		l-0.2-0.3c0.2,0,0.4-0.1,0.6-0.2L22.7,18.9z M23.2,19.6l0.4,0.5l0,0.1h-0.7l-0.1-0.1L23.2,19.6z M23.3,19.5l0.4-0.4l0.4,0.5
		L23.7,20L23.3,19.5z M24.2,19.6l0.4,0.5l0,0h-0.8l0-0.1L24.2,19.6z M24.2,19.5l0.4-0.4l0.4,0.5L24.7,20L24.2,19.5z M24.7,19
		l0.4-0.5l0.4,0.5l-0.4,0.5L24.7,19z M25.3,18.5l0.5-0.5l0.4,0.5L25.7,19L25.3,18.5z M26.2,18.6l0.5,0.5l-0.5,0.5L25.7,19L26.2,18.6
		z M26.8,19.1l0.3,0.3c-0.3,0.1-0.5,0.1-0.7,0.2l-0.1-0.1L26.8,19.1z M26.8,19l0.4-0.5l0.5,0.5l-0.2,0.2l-0.3,0.1L26.8,19z
		 M27.8,19.2L27.8,19.2L27.8,19.2L27.8,19.2z M27.8,19l-0.5-0.5l0.5-0.5l0.5,0.5L27.8,19z M27.9,17.9l0.4-0.5l0.5,0.5l-0.4,0.5
		L27.9,17.9z M27.8,17.8l-0.5-0.5l0.4-0.5l0.5,0.5L27.8,17.8z M27.2,17.3l-0.4-0.5l0.2-0.2h0.6l0.2,0.2L27.2,17.3z M27.5,16.5h-1.8
		c-0.2,0-0.5-0.6-0.2-0.6h1.5C27.3,15.9,27.8,16.4,27.5,16.5z M26.2,11.6C26.1,11.6,26.1,11.5,26.2,11.6c-0.1,0-0.1,0-0.2,0
		c-0.1,0-0.2,0-0.3-0.1c0-0.1,0.1-0.2,0.2-0.3c0.1,0,0.1,0,0.2,0.1c0,0,0.1-0.1,0.2-0.1c0.1,0,0.2,0.2,0.2,0.3S26.3,11.6,26.2,11.6z
		 M25.9,11.2c-0.1,0.1-0.2,0.2-0.3,0.2c0,0,0-0.3,0-0.4c0.1-0.1,0.1-0.1,0.2,0C25.9,11,26,11.1,25.9,11.2z M25.2,11
		C25.2,11,25.2,11,25.2,11C25.2,11,25.2,11,25.2,11c0-0.2,0.1-0.3,0.2-0.3c0.1,0,0.2,0.1,0.2,0.3s-0.1,0.4-0.2,0.4
		c-0.1,0-0.1,0-0.1-0.1c0,0.1,0,0.1,0,0.2c0,0-0.2,0-0.3-0.2c-0.1-0.1,0-0.2,0-0.3C25.1,10.9,25.1,10.9,25.2,11z M25,12.1
		C25,12.1,25,12.1,25,12.1c0,0-0.1,0-0.1-0.1c0-0.1,0-0.2,0.1-0.3c0.1,0,0.2,0,0.3,0.1c0,0,0,0.1-0.1,0.1c0,0,0.1,0,0.1,0
		c0,0,0,0.3,0,0.4c-0.1,0.1-0.2,0.1-0.2,0.1C24.9,12.3,24.9,12.2,25,12.1z M24.6,17.9l-0.5,0.5l-0.3-0.3
		C24.1,18.1,24.3,18,24.6,17.9L24.6,17.9z M22.6,19l-0.4,0.4L21.8,19c0.2-0.1,0.3-0.3,0.6-0.3L22.6,19z M22.1,19.5l-0.4,0.4
		l-0.5-0.5c0.2-0.2,0.3-0.3,0.5-0.4L22.1,19.5z M21.7,20L21.7,20L21.7,20L21.7,20z M21.5,20.1H21c0-0.3,0.1-0.4,0.2-0.6l0.4,0.5
		L21.5,20.1z M25.2,20.1h-0.4l0.3-0.5l0.3,0.3C25.3,20,25.3,20.1,25.2,20.1z M26.2,19.6L26.2,19.6L26.2,19.6L26.2,19.6z M27.9,19
		l0.5-0.5l0.3,0.3C28.5,19,28.2,19,27.9,19L27.9,19z M28.4,18.5l0.4-0.5l0.2,0.2c0,0.1,0,0.2,0,0.3c0,0.1-0.2,0.3-0.3,0.4L28.4,18.5
		z M29.1,18.1L28.9,18l0.2-0.2C29.1,17.9,29.1,18,29.1,18.1z M28.8,17.9l-0.5-0.5l0.3-0.3c0.2,0.1,0.3,0.3,0.4,0.6L28.8,17.9z
		 M28.3,17.3l-0.5-0.5l0.2-0.2c0.2,0.1,0.4,0.2,0.6,0.3L28.3,17.3z M27.7,16.8L27.7,16.8l0.1-0.1L27.7,16.8z M27.4,11.9
		c0,0.1-0.1,0.2-0.2,0.1c-0.1,0-0.2-0.2-0.2-0.3c0-0.1,0.1-0.1,0.3-0.1C27.4,11.7,27.4,11.8,27.4,11.9z M27.2,12.1
		c0.1,0.1,0,0.2,0,0.3c0,0-0.1,0-0.2-0.1c0,0,0,0,0,0c0,0,0,0,0,0.1c0,0.2-0.1,0.3-0.2,0.3s-0.2-0.1-0.2-0.3s0.1-0.4,0.2-0.4
		c0.1,0,0.1,0,0.1,0.1c0-0.1,0-0.1,0-0.2C27,11.9,27.1,12,27.2,12.1z M26.7,11.9c-0.1,0-0.2-0.1-0.2-0.2c0-0.1,0.1-0.2,0.2-0.2
		c0.1,0,0.2,0.1,0.2,0.2C26.9,11.8,26.8,11.9,26.7,11.9z M32.6,25.2c-0.2,0.3-0.3,0.4-0.4,0.5l-0.4-0.5l0.1-0.1L32.6,25.2
		C32.6,25.1,32.6,25.2,32.6,25.2z M32,25.8L32,25.8c-0.2,0.3-0.3,0.4-0.4,0.5l-0.5-0.5l0.5-0.5L32,25.8z M31.6,25.1L31.6,25.1
		L31.6,25.1L31.6,25.1z M30.6,26.2l-0.4,0.5l-0.4-0.4l0.4-0.5L30.6,26.2z M30.2,25.7l0.3-0.4l0.4,0.4l-0.3,0.4L30.2,25.7z
		 M30.6,26.3l0.3,0.4c-0.2,0.1-0.4,0.1-0.7,0.2l-0.1-0.1L30.6,26.3z M30.7,26.3l0.3-0.4l0.5,0.5c-0.1,0.1-0.3,0.2-0.4,0.3L30.7,26.3
		z M31.1,25.7l-0.4-0.4l0.2-0.2h0.6l0.1,0.1L31.1,25.7z M30.5,25.2l-0.1-0.1h0.2L30.5,25.2z M30.5,25.3l-0.3,0.4l-0.4-0.4l0.1-0.1
		h0.4L30.5,25.3z M29.7,25.2L29.7,25.2L29.7,25.2L29.7,25.2z M29.7,25.3l0.4,0.4l-0.4,0.5l-0.4-0.4L29.7,25.3z M21.6,26.2l0.5,0.5
		L21.9,27l-0.5,0l-0.2-0.2L21.6,26.2z M21.1,26.6l-0.3-0.3l0.6-0.1L21.1,26.6z M21.8,26.2l0.8-0.1l0,0l-0.4,0.5L21.8,26.2z
		 M22.2,26.8l0.2,0.2H22L22.2,26.8z M22.3,26.8l0.4-0.5l0.4,0.4L22.8,27h-0.3L22.3,26.8z M26.7,26.2l-0.5-0.5l0.3-0.3l0.2,0l0.4,0.4
		L26.7,26.2z M27.2,25.9l0.4,0.4l-0.4,0.4l-0.4-0.4L27.2,25.9z M26.2,25.6l-0.1-0.1l0.3,0L26.2,25.6z M26.1,25.7l-0.4,0.4l-0.4-0.5
		l0.6-0.1L26.1,25.7z M25.6,26.2l-0.5,0.5l-0.4-0.5l0.5-0.5L25.6,26.2z M24.7,26.2l-0.3-0.3c0.2,0,0.5-0.1,0.7-0.1L24.7,26.2z
		 M24.6,26.2l-0.4,0.4l-0.5-0.5l0.3-0.3l0.3,0L24.6,26.2z M23.6,26.1L23.5,26l0.3,0L23.6,26.1z M23.6,26.2l-0.4,0.4l-0.4-0.4
		l0.1-0.1l0.6-0.1L23.6,26.2z M23.2,26.8l0.3,0.3l-0.5,0L23.2,26.8z M23.3,26.7l0.4-0.4l0.5,0.5l-0.3,0.3h-0.3L23.3,26.7z
		 M24.2,26.8l0.3,0.3H24L24.2,26.8z M24.3,26.8l0.4-0.4l0.4,0.4l-0.3,0.3l-0.2,0L24.3,26.8z M25.2,26.8l0.2,0.3h0H25L25.2,26.8z
		 M25.3,26.8l0.5-0.5l0.5,0.5l-0.3,0.3h-0.3L25.3,26.8z M25.8,26.2l0.4-0.4l0.5,0.5l-0.4,0.4L25.8,26.2z M26.8,26.4l0.4,0.4
		l-0.3,0.3h-0.2l-0.3-0.3L26.8,26.4z M27.2,26.9l0.2,0.2H27L27.2,26.9z M27.3,26.8l0.4-0.4l0.4,0.5L27.9,27l-0.3,0L27.3,26.8z
		 M27.7,26.2l0.4-0.4l0.4,0.5l-0.4,0.4L27.7,26.2z M28.2,26.9l0.1,0.1H28L28.2,26.9z M28.2,26.8l0.4-0.4l0.4,0.4L28.9,27l-0.5,0
		L28.2,26.8z M29.1,26.9L29.1,26.9L29.1,26.9L29.1,26.9z M29.2,26.7l-0.4-0.4l0.4-0.5l0.4,0.4L29.2,26.7z M29.1,25.7l-0.4-0.5
		l0.1-0.1h0.6l0.1,0.1L29.1,25.7z M28.7,25.1L28.7,25.1L28.7,25.1L28.7,25.1z M28.6,25.3l0.4,0.5l-0.4,0.5l-0.4-0.5L28.6,25.3z
		 M28.1,25.7l-0.4-0.4l0.2-0.2h0.5l0.1,0.1L28.1,25.7z M27.7,25.2L27.7,25.2c0-0.1,0-0.1,0-0.1h0L27.7,25.2z M27.7,25.3l0.4,0.4
		l-0.4,0.4l-0.4-0.4L27.7,25.3z M27.2,25.7l-0.3-0.4c0.3,0,0.5-0.1,0.7-0.1l0.1,0.1L27.2,25.7z M20.7,26.4l0.3,0.3l-0.2,0.2
		c-0.6-0.1-1-0.2-1-0.3C19.9,26.5,20.2,26.5,20.7,26.4z M21.1,26.8l0.1,0.1L21.1,26.8L21.1,26.8z M26.2,26.9l0.2,0.2H26L26.2,26.9z
		 M29.2,26.8l0.4-0.5l0.4,0.4L30,26.9h-0.1l-0.5,0L29.2,26.8z M32.4,24.8h-4.3c-0.2,0-0.6-0.7-0.1-0.7h4.3
		C32.6,24.2,32.6,24.8,32.4,24.8z M27.3,11.6c-0.1,0-0.2,0-0.3,0c0-0.1,0.1-0.2,0.2-0.3c0.1,0,0.1,0,0.2,0.1
		C27.4,11.5,27.4,11.6,27.3,11.6z M27.2,11.2c-0.1,0.1-0.2,0.2-0.3,0.2c-0.1,0,0-0.3,0-0.4c0.1-0.1,0.2-0.1,0.2,0
		C27.3,11,27.3,11.1,27.2,11.2z"/>
	<path class="st5" d="M25.4,11.5c-0.1,0-0.2,0.1-0.2,0.2c0,0.1,0.1,0.2,0.2,0.2c0.1,0,0.2-0.1,0.2-0.2
		C25.6,11.5,25.6,11.4,25.4,11.5z"/>
	<path class="st5" d="M25,11.2c0,0.1,0.2,0.2,0.3,0.2c0,0,0-0.1,0-0.2c0,0.1,0.1,0.1,0.1,0.1c0.1,0,0.2-0.2,0.2-0.4
		s-0.1-0.3-0.2-0.3c-0.1,0-0.2,0.1-0.2,0.3c0,0,0,0,0,0.1c0,0,0,0,0,0c-0.1-0.1-0.2-0.1-0.2-0.1C25,11,24.9,11.1,25,11.2z"/>
	<path class="st5" d="M25.1,11.5c0-0.1-0.1-0.2-0.2-0.3c-0.1,0-0.1,0-0.2,0.1c0,0.1,0,0.2,0.1,0.2C25,11.6,25.1,11.6,25.1,11.5z"/>
	<path class="st5" d="M25.2,12.3c0.1-0.1,0.1-0.3,0-0.4c0,0-0.1,0-0.1,0c0,0,0.1-0.1,0.1-0.1c0-0.1-0.2-0.1-0.3-0.1
		c-0.1,0-0.1,0.2-0.1,0.3c0,0.1,0.1,0.1,0.2,0.1c0,0,0,0,0,0c-0.1,0.1,0,0.2,0,0.3C25,12.4,25.1,12.4,25.2,12.3z"/>
	<path class="st5" d="M25.4,12.6c0.1,0,0.2-0.1,0.2-0.3S25.6,12,25.4,12c-0.1,0-0.2,0.2-0.2,0.4S25.3,12.6,25.4,12.6z"/>
	<path class="st5" d="M25.7,12.3c0,0.1,0.1,0.1,0.2,0.1c0-0.1,0.1-0.2,0-0.3c0-0.1-0.2-0.2-0.3-0.2C25.6,12,25.6,12.2,25.7,12.3z"/>
	<path class="st5" d="M26.1,11.9c0-0.1,0-0.2-0.1-0.2c-0.1,0-0.3,0-0.3,0.1c0,0.1,0.1,0.2,0.2,0.3C26,12,26,12,26.1,11.9z"/>
	<path class="st5" d="M25.7,11c-0.1,0.1-0.1,0.3,0,0.4c0,0,0.2,0,0.3-0.2c0.1-0.1,0-0.2,0-0.3C25.8,10.9,25.8,10.9,25.7,11z"/>
	<path class="st5" d="M26.7,11.5c-0.1,0-0.2,0.1-0.2,0.2c0,0.1,0.1,0.2,0.2,0.2c0.1,0,0.2-0.1,0.2-0.2
		C26.9,11.5,26.8,11.4,26.7,11.5z"/>
	<path class="st5" d="M26.3,11.2c0,0.1,0.2,0.2,0.3,0.2c0,0,0-0.1,0-0.2c0,0.1,0.1,0.1,0.1,0.1c0.1,0,0.2-0.2,0.2-0.4
		s-0.1-0.3-0.2-0.3s-0.2,0.1-0.2,0.3c0,0,0,0,0,0.1c0,0,0,0,0,0c-0.1-0.1-0.2-0.1-0.2-0.1C26.2,11,26.2,11.1,26.3,11.2z"/>
	<path class="st5" d="M26.2,11.3c-0.1,0-0.1,0-0.2,0.1c0-0.1-0.1-0.1-0.2-0.1c-0.1,0-0.2,0.2-0.2,0.3c0,0.1,0.2,0.1,0.3,0.1
		c0,0,0.1-0.1,0.1-0.1c0,0,0,0.1,0.1,0.1c0.1,0,0.3,0,0.3,0S26.3,11.3,26.2,11.3z"/>
	<path class="st5" d="M26.5,11.8c0-0.1-0.2-0.1-0.3-0.1c-0.1,0-0.1,0.1-0.1,0.3c0,0.1,0.1,0.1,0.2,0.1c0,0,0,0,0,0
		c0,0.1,0,0.2,0,0.3c0,0,0.1,0,0.2-0.1c0.1-0.1,0.1-0.3,0-0.4c0,0-0.1,0-0.1,0C26.4,11.9,26.5,11.8,26.5,11.8z"/>
	<path class="st5" d="M26.9,12.1c0-0.1-0.1-0.1-0.1-0.1c-0.1,0-0.2,0.2-0.2,0.4s0.1,0.3,0.2,0.3s0.2-0.1,0.2-0.3c0,0,0,0,0-0.1
		c0,0,0,0,0,0c0.1,0.1,0.2,0.1,0.2,0.1c0-0.1,0.1-0.2,0-0.3c0-0.1-0.2-0.2-0.3-0.2C26.9,11.9,26.9,12,26.9,12.1z"/>
	<path class="st5" d="M27,11.8c0,0.1,0.1,0.2,0.2,0.3c0.1,0,0.1,0,0.2-0.1c0-0.1,0-0.2-0.1-0.2C27.1,11.7,27,11.7,27,11.8z"/>
	<path class="st5" d="M27.2,11.3c-0.1,0-0.2,0.2-0.2,0.3c0,0.1,0.2,0.1,0.3,0c0.1,0,0.1-0.1,0.1-0.2C27.3,11.3,27.3,11.3,27.2,11.3z
		"/>
	<path class="st5" d="M27,11c-0.1,0.1-0.1,0.3,0,0.4c0,0,0.2,0,0.3-0.2c0-0.1,0-0.2,0-0.3C27.2,10.9,27.1,10.9,27,11z"/>
</g>
</svg>
