<?xml version="1.0" encoding="utf-8"?>
<!-- Generator: Adobe Illustrator 21.0.0, SVG Export Plug-In . SVG Version: 6.00 Build 0)  -->
<svg version="1.1" id="Capa_1" xmlns="http://www.w3.org/2000/svg" xmlns:xlink="http://www.w3.org/1999/xlink" x="0px" y="0px"
	 viewBox="0 0 52 52" style="enable-background:new 0 0 52 52;" xml:space="preserve">
<style type="text/css">
	.st0{fill:#FF771D;}
	.st1{fill:#FFFFFF;}
</style>
<path class="st0" d="M38.7,5.9c-7-7-18.4-7-25.4,0c-6.3,6.3-7,18.2-1.7,25.3L26,52l14.4-20.7C45.7,24.1,45,12.2,38.7,5.9z M26,31.8
	c-7.3,0-13.2-5.9-13.2-13.2S18.7,5.4,26,5.4s13.2,5.9,13.2,13.2S33.3,31.8,26,31.8z"/>
<path class="st1" d="M26,5.5c-7.3,0-13.2,5.9-13.2,13.2S18.7,31.9,26,31.9S39.2,26,39.2,18.7S33.3,5.5,26,5.5z M26.7,7.4
	c1,0,1.8,0.8,1.8,1.8S27.7,11,26.7,11s-1.8-0.8-1.8-1.8C24.9,8.2,25.7,7.4,26.7,7.4z M32.3,28.8c-0.2,0-0.4-0.2-0.4-0.4l-0.1-10.7
	h-3.3c-0.3,0-0.6-0.1-0.8-0.4L26.9,16l-0.6,4.2l2.1,2c0.3,0.2,0.4,0.6,0.4,0.9l-0.3,4.6c0,0.6-0.5,1-1.1,1h-0.1
	c-0.6,0-1.1-0.6-1-1.2l0.3-4.1l-2.1-1.9l-0.8,2.8c0,0.1-0.1,0.3-0.2,0.4l-2.6,3.5c-0.2,0.3-0.6,0.5-0.9,0.5c-0.2,0-0.5-0.1-0.7-0.2
	c-0.5-0.4-0.6-1.1-0.2-1.6l2.5-3.3l1.1-4.2l0.1-0.3c-0.9-0.1-1.7-0.9-1.7-1.8V9.5c0-0.4,0.3-0.7,0.7-0.7h1.8c0.4,0,0.7,0.3,0.7,0.7
	v2.1c0.4-0.3,0.9-0.5,1.4-0.4s0.9,0.3,1.2,0.7c0.3,0.4,0.4,0.9,0.4,1.4l0,0l1.8,2.5h3.2c0.5,0,0.9,0.4,0.9,0.9
	c0,0.4-0.2,0.7-0.6,0.9l0.1,10.8C32.7,28.6,32.5,28.8,32.3,28.8z"/>
<circle class="st0" cx="26.7" cy="9.2" r="1.8"/>
<path class="st0" d="M32.6,17.6c0.3-0.1,0.6-0.5,0.6-0.9c0-0.5-0.4-0.9-0.9-0.9h-3.2l-1.8-2.5l0,0c0.1-0.5-0.1-1-0.4-1.4
	s-0.7-0.6-1.2-0.7c-0.5-0.1-1,0.1-1.4,0.4V9.5c0-0.4-0.3-0.7-0.7-0.7h-1.8c-0.4,0-0.7,0.3-0.7,0.7v7.8c0,1,0.7,1.7,1.7,1.8l-0.1,0.3
	l-1.1,4.2l-2.5,3.3c-0.4,0.5-0.3,1.2,0.2,1.6c0.2,0.1,0.4,0.2,0.7,0.2c0.3,0,0.7-0.2,0.9-0.5l2.6-3.5c0.1-0.1,0.1-0.2,0.2-0.4
	l0.8-2.8l2.1,1.9l-0.3,4.1c0,0.6,0.4,1.2,1,1.2h0.1c0.6,0,1.1-0.5,1.1-1l0.3-4.6c0-0.3-0.1-0.7-0.4-0.9l-2.1-2l0.6-4.2l0.9,1.3
	c0.2,0.2,0.5,0.4,0.8,0.4h3.3L32,28.4c0,0.2,0.2,0.4,0.4,0.4s0.4-0.2,0.4-0.4L32.6,17.6z"/>
</svg>
