<svg width="52" height="52" xmlns="http://www.w3.org/2000/svg">
 <style type="text/css">.st0{fill:#015591;}
	.st1{display:none;fill:#FFFFFF;}
	.st2{display:none;fill:#1081E0;}
	.st3{display:none;}
	.st4{display:inline;fill:#FFFFFF;}
	.st5{fill:#FFFFFF;}
	.st6{fill:#7CA665;}
	.st7{fill:#F6921E;}</style>

 <g>
  <title>background</title>
  <rect fill="none" id="canvas_background" height="402" width="582" y="-1" x="-1"/>
 </g>
 <g>
  <title>Layer 1</title>
  <g id="Capa_1">
   <path id="svg_1" d="m38.7,5.9c-7,-7 -18.4,-7 -25.4,0c-6.3,6.3 -7,18.2 -1.7,25.3l14.4,20.8l14.4,-20.7c5.3,-7.2 4.6,-19.1 -1.7,-25.4zm-12.7,25.9c-7.3,0 -13.2,-5.9 -13.2,-13.2s5.9,-13.2 13.2,-13.2s13.2,5.9 13.2,13.2s-5.9,13.2 -13.2,13.2zm9.4,-13.1c-0.1,-0.4 -0.4,-0.7 -0.8,-0.7c-0.2,0 -0.4,0.1 -0.6,0.3l-3,2.9c-0.1,0.1 -0.1,0.1 -0.1,0.2c-0.1,0.2 -0.2,0.4 -0.2,0.6s0.2,0.4 0.3,0.6c0.1,0.1 0.1,0.1 0.2,0.1l0.8,0.3c-0.4,1 -1,2 -2,2.8s-2,1.4 -3.1,1.6l0,-13.8c0.6,-0.2 1.1,-0.6 1.5,-1.2c0.4,-0.6 0.6,-1.1 0.6,-1.7c0,-0.8 -0.3,-1.6 -0.9,-2.2s-1.2,-0.9 -2.1,-0.9s-1.5,0.3 -2.1,0.9s-0.9,1.4 -0.9,2.2c0,0.6 0.2,1.2 0.6,1.7c0.4,0.6 0.9,0.9 1.5,1.2l0,13.8c-1.1,-0.2 -2.2,-0.7 -3.1,-1.6c-1,-0.8 -1.6,-1.8 -2,-2.8l0.8,-0.3c0.1,0 0.2,-0.1 0.2,-0.1c0.2,-0.1 0.3,-0.3 0.3,-0.6s0,-0.4 -0.2,-0.6c-0.1,-0.1 -0.1,-0.1 -0.1,-0.2l-3,-2.9c-0.2,-0.2 -0.4,-0.3 -0.6,-0.3c-0.4,0 -0.7,0.2 -0.8,0.7l-0.7,4.2l0,0.2c0,0.2 0.1,0.4 0.2,0.6c0.2,0.2 0.4,0.3 0.6,0.3c0.1,0 0.2,0 0.3,0l0.7,-0.2c0.6,1.8 1.6,3.2 3.1,4.3s3.2,1.7 5.1,1.7s3.6,-0.6 5.1,-1.7s2.5,-2.6 3.1,-4.3l0.7,0.2c0.1,0 0.1,0 0.3,0s0.4,-0.1 0.6,-0.3c0.2,-0.2 0.2,-0.4 0.2,-0.6l0,-0.2l-0.5,-4.2zm-10.2,-7.1c-0.2,-0.3 -0.4,-0.6 -0.4,-0.9s0.2,-0.7 0.4,-0.9s0.5,-0.4 0.9,-0.4s0.6,0.1 0.9,0.4s0.4,0.5 0.4,0.9s-0.1,0.7 -0.4,0.9c-0.2,0.2 -0.5,0.4 -0.9,0.4s-0.7,-0.2 -0.9,-0.4z" class="st0"/>
   <path id="svg_2" d="m26,5.5c-7.3,0 -13.2,5.9 -13.2,13.2s5.9,13.2 13.2,13.2s13.2,-5.9 13.2,-13.2s-5.9,-13.2 -13.2,-13.2zm0.7,1.9c1,0 1.8,0.8 1.8,1.8s-0.8,1.8 -1.8,1.8s-1.8,-0.8 -1.8,-1.8c0,-1 0.8,-1.8 1.8,-1.8zm5.6,21.4c-0.2,0 -0.4,-0.2 -0.4,-0.4l-0.1,-10.7l-3.3,0c-0.3,0 -0.6,-0.1 -0.8,-0.4l-0.8,-1.3l-0.6,4.2l2.1,2c0.3,0.2 0.4,0.6 0.4,0.9l-0.3,4.6c0,0.6 -0.5,1 -1.1,1l-0.1,0c-0.6,0 -1.1,-0.6 -1,-1.2l0.3,-4.1l-2.1,-1.9l-0.8,2.8c0,0.1 -0.1,0.3 -0.2,0.4l-2.6,3.5c-0.2,0.3 -0.6,0.5 -0.9,0.5c-0.2,0 -0.5,-0.1 -0.7,-0.2c-0.5,-0.4 -0.6,-1.1 -0.2,-1.6l2.5,-3.3l1.1,-4.2l0.1,-0.3c-0.9,-0.1 -1.7,-0.9 -1.7,-1.8l0,-7.8c0,-0.4 0.3,-0.7 0.7,-0.7l1.8,0c0.4,0 0.7,0.3 0.7,0.7l0,2.1c0.4,-0.3 0.9,-0.5 1.4,-0.4s0.9,0.3 1.2,0.7c0.3,0.4 0.4,0.9 0.4,1.4l0,0l1.8,2.5l3.2,0c0.5,0 0.9,0.4 0.9,0.9c0,0.4 -0.2,0.7 -0.6,0.9l0.1,10.8c0,0.2 -0.2,0.4 -0.4,0.4z" class="st1"/>
   <circle id="svg_3" r="1.8" cy="9.2" cx="26.7" class="st2"/>
   <g id="svg_4">
    <g id="svg_5" class="st3">
     <path id="svg_6" d="m35.5,18.7c-0.1,-0.5 -0.4,-0.7 -0.8,-0.7c-0.2,0 -0.5,0.1 -0.6,0.3l-3.1,2.9c-0.1,0.1 -0.1,0.1 -0.1,0.2c-0.2,0.2 -0.2,0.4 -0.2,0.6s0.2,0.4 0.3,0.6c0.1,0.1 0.1,0.1 0.2,0.1l0.8,0.3c-0.4,1.1 -1,2 -2,2.9c-1,0.8 -2,1.4 -3.1,1.6l0,-14c0.6,-0.2 1.1,-0.6 1.6,-1.2c0.4,-0.6 0.7,-1.1 0.7,-1.7c0,-0.8 -0.3,-1.6 -0.9,-2.2s-1.3,-0.9 -2.2,-0.9s-1.6,0.3 -2.2,0.9s-0.9,1.4 -0.9,2.2c0,0.6 0.2,1.2 0.6,1.7c0.4,0.6 0.9,1 1.5,1.2l0,14c-1.1,-0.2 -2.2,-0.7 -3.2,-1.6s-1.6,-1.8 -2,-2.9l0.8,-0.3c0.1,0 0.2,-0.1 0.2,-0.1c0.2,-0.2 0.3,-0.3 0.3,-0.6s0,-0.5 -0.2,-0.6c-0.1,-0.1 -0.1,-0.2 -0.1,-0.2l-3.1,-2.9c-0.2,-0.2 -0.4,-0.3 -0.6,-0.3c-0.5,0 -0.7,0.2 -0.8,0.7l-0.7,4.2l0,0.2c0,0.2 0.1,0.5 0.2,0.6s0.4,0.3 0.6,0.3c0.1,0 0.2,0 0.3,0l0.7,-0.2c0.6,1.8 1.7,3.2 3.2,4.4c1.5,1.1 3.2,1.7 5.2,1.7s3.7,-0.6 5.2,-1.7s2.6,-2.6 3.2,-4.4l0.7,0.2c0.1,0 0.2,0 0.3,0c0.2,0 0.4,-0.1 0.6,-0.3s0.2,-0.4 0.2,-0.6l0,-0.2l-0.6,-4.2zm-10.3,-7.2c-0.2,-0.3 -0.4,-0.6 -0.4,-0.9s0.1,-0.6 0.4,-0.9c0.2,-0.2 0.5,-0.4 0.9,-0.4c0.3,0 0.6,0.1 0.9,0.4c0.2,0.2 0.4,0.5 0.4,0.9s-0.1,0.7 -0.4,0.9c-0.2,0.2 -0.5,0.4 -0.9,0.4s-0.7,-0.2 -0.9,-0.4z" class="st4"/>
    </g>
   </g>
   <circle id="svg_7" r="14.6" cy="18.7" cx="26" class="st0"/>
   <circle id="svg_8" r="13.3" cy="18.5" cx="26" class="st5"/>
  </g>
  <text stroke="#000" transform="matrix(2.8879767962513934,0,0,1.312026023864746,-46.65114115802353,-11.628386437892914) " xml:space="preserve" text-anchor="start" font-family="'Shadows Into Light', serif" font-size="20" id="svg_21" y="29.575274" x="21.757743" stroke-opacity="null" stroke-width="0" fill="#ff7f00">!</text>
 </g>
</svg>