<?xml version="1.0" encoding="UTF-8" ?>
<!DOCTYPE svg PUBLIC "-//W3C//DTD SVG 1.1//EN" "http://www.w3.org/Graphics/SVG/1.1/DTD/svg11.dtd">
<svg width="200pt" height="200pt" viewBox="0 0 200 200" version="1.1" xmlns="http://www.w3.org/2000/svg">
<g id="#00a9ffff">
<path fill="#00a9ff" stroke="#00a9ff" stroke-width="0.09375" opacity="1.00" d=" M 9.18 39.39 C 69.74 39.44 130.30 39.43 190.86 39.40 C 160.54 63.74 130.17 88.00 100.02 112.54 C 69.87 88.00 39.48 63.74 9.18 39.39 Z" />
<path fill="#00a9ff" stroke="#00a9ff" stroke-width="0.09375" opacity="1.00" d=" M 3.68 42.02 C 4.77 43.01 5.82 44.05 6.98 44.97 C 29.93 63.35 52.79 81.87 75.77 100.22 C 75.70 100.42 75.56 100.82 75.49 101.02 C 51.59 120.36 27.48 139.46 3.68 158.92 C 3.64 119.95 3.64 80.98 3.68 42.02 Z" />
<path fill="#00a9ff" stroke="#00a9ff" stroke-width="0.09375" opacity="1.00" d=" M 192.48 45.44 C 193.86 44.38 195.11 43.18 196.32 41.93 C 196.40 80.65 196.26 119.36 196.39 158.08 C 172.15 139.00 148.28 119.43 124.17 100.18 C 147.10 82.15 169.65 63.62 192.48 45.44 Z" />
<path fill="#00a9ff" stroke="#00a9ff" stroke-width="0.09375" opacity="1.00" d=" M 101.51 118.47 C 107.76 113.81 113.56 108.55 119.88 103.98 C 143.54 123.25 167.38 142.31 191.20 161.39 C 130.63 161.64 70.04 161.52 9.46 161.45 C 33.33 142.46 56.94 123.16 80.84 104.21 C 86.25 108.84 91.90 113.18 97.41 117.68 C 98.48 118.68 100.17 119.44 101.51 118.47 Z" />
</g>
</svg>
