<?xml version="1.0" encoding="utf-8"?>
<!-- Generator: Adobe Illustrator 21.0.0, SVG Export Plug-In . SVG Version: 6.00 Build 0)  -->
<svg version="1.1" id="Capa_1" xmlns="http://www.w3.org/2000/svg" xmlns:xlink="http://www.w3.org/1999/xlink" x="0px" y="0px"
	 viewBox="0 0 52 52" style="enable-background:new 0 0 52 52;" xml:space="preserve">
<style type="text/css">
	.st0{fill:#0079BC;}
	.st1{display:none;fill:#FFFFFF;}
	.st2{display:none;}
	.st3{display:inline;fill:#FFFFFF;}
	.st4{fill:#FFFFFF;}
	.st5{display:none;fill:#0079BC;}
</style>
<path class="st0" d="M38.7,5.9c-7-7-18.4-7-25.4,0c-6.3,6.3-7,18.2-1.7,25.3L26,52l14.4-20.7C45.7,24.1,45,12.2,38.7,5.9z M26,31.8
	c-7.3,0-13.2-5.9-13.2-13.2S18.7,5.4,26,5.4s13.2,5.9,13.2,13.2S33.3,31.8,26,31.8z M35.4,18.7C35.3,18.3,35,18,34.6,18
	c-0.2,0-0.4,0.1-0.6,0.3l-3,2.9c-0.1,0.1-0.1,0.1-0.1,0.2c-0.1,0.2-0.2,0.4-0.2,0.6s0.2,0.4,0.3,0.6c0.1,0.1,0.1,0.1,0.2,0.1L32,23
	c-0.4,1-1,2-2,2.8s-2,1.4-3.1,1.6V13.6c0.6-0.2,1.1-0.6,1.5-1.2c0.4-0.6,0.6-1.1,0.6-1.7c0-0.8-0.3-1.6-0.9-2.2S26.9,7.6,26,7.6
	s-1.5,0.3-2.1,0.9S23,9.9,23,10.7c0,0.6,0.2,1.2,0.6,1.7c0.4,0.6,0.9,0.9,1.5,1.2v13.8c-1.1-0.2-2.2-0.7-3.1-1.6
	C21,25,20.4,24,20,23l0.8-0.3c0.1,0,0.2-0.1,0.2-0.1c0.2-0.1,0.3-0.3,0.3-0.6s0-0.4-0.2-0.6C21,21.3,21,21.3,21,21.2l-3-2.9
	c-0.2-0.2-0.4-0.3-0.6-0.3c-0.4,0-0.7,0.2-0.8,0.7l-0.7,4.2v0.2c0,0.2,0.1,0.4,0.2,0.6c0.2,0.2,0.4,0.3,0.6,0.3c0.1,0,0.2,0,0.3,0
	l0.7-0.2c0.6,1.8,1.6,3.2,3.1,4.3s3.2,1.7,5.1,1.7s3.6-0.6,5.1-1.7c1.5-1.1,2.5-2.6,3.1-4.3l0.7,0.2c0.1,0,0.1,0,0.3,0
	s0.4-0.1,0.6-0.3c0.2-0.2,0.2-0.4,0.2-0.6v-0.2L35.4,18.7z M25.2,11.6c-0.2-0.3-0.4-0.6-0.4-0.9S25,10,25.2,9.8s0.5-0.4,0.9-0.4
	s0.6,0.1,0.9,0.4s0.4,0.5,0.4,0.9s-0.1,0.7-0.4,0.9c-0.2,0.2-0.5,0.4-0.9,0.4S25.4,11.8,25.2,11.6z"/>
<path class="st1" d="M26,5.5c-7.3,0-13.2,5.9-13.2,13.2S18.7,31.9,26,31.9S39.2,26,39.2,18.7S33.3,5.5,26,5.5z M26.7,7.4
	c1,0,1.8,0.8,1.8,1.8S27.7,11,26.7,11s-1.8-0.8-1.8-1.8C24.9,8.2,25.7,7.4,26.7,7.4z M32.3,28.8c-0.2,0-0.4-0.2-0.4-0.4l-0.1-10.7
	h-3.3c-0.3,0-0.6-0.1-0.8-0.4L26.9,16l-0.6,4.2l2.1,2c0.3,0.2,0.4,0.6,0.4,0.9l-0.3,4.6c0,0.6-0.5,1-1.1,1h-0.1
	c-0.6,0-1.1-0.6-1-1.2l0.3-4.1l-2.1-1.9l-0.8,2.8c0,0.1-0.1,0.3-0.2,0.4l-2.6,3.5c-0.2,0.3-0.6,0.5-0.9,0.5c-0.2,0-0.5-0.1-0.7-0.2
	c-0.5-0.4-0.6-1.1-0.2-1.6l2.5-3.3l1.1-4.2l0.1-0.3c-0.9-0.1-1.7-0.9-1.7-1.8V9.5c0-0.4,0.3-0.7,0.7-0.7h1.8c0.4,0,0.7,0.3,0.7,0.7
	v2.1c0.4-0.3,0.9-0.5,1.4-0.4s0.9,0.3,1.2,0.7c0.3,0.4,0.4,0.9,0.4,1.4l0,0l1.8,2.5h3.2c0.5,0,0.9,0.4,0.9,0.9
	c0,0.4-0.2,0.7-0.6,0.9l0.1,10.8C32.7,28.6,32.5,28.8,32.3,28.8z"/>
<g>
	<g class="st2">
		<path class="st3" d="M35.5,18.7c-0.1-0.5-0.4-0.7-0.8-0.7c-0.2,0-0.5,0.1-0.6,0.3L31,21.2c-0.1,0.1-0.1,0.1-0.1,0.2
			c-0.2,0.2-0.2,0.4-0.2,0.6s0.2,0.4,0.3,0.6c0.1,0.1,0.1,0.1,0.2,0.1L32,23c-0.4,1.1-1,2-2,2.9c-1,0.8-2,1.4-3.1,1.6v-14
			c0.6-0.2,1.1-0.6,1.6-1.2c0.4-0.6,0.7-1.1,0.7-1.7c0-0.8-0.3-1.6-0.9-2.2S27,7.5,26.1,7.5s-1.6,0.3-2.2,0.9S23,9.8,23,10.6
			c0,0.6,0.2,1.2,0.6,1.7c0.4,0.6,0.9,1,1.5,1.2v14c-1.1-0.2-2.2-0.7-3.2-1.6s-1.6-1.8-2-2.9l0.8-0.3c0.1,0,0.2-0.1,0.2-0.1
			c0.2-0.2,0.3-0.3,0.3-0.6s0-0.5-0.2-0.6c-0.1-0.1-0.1-0.2-0.1-0.2l-3.1-2.9c-0.2-0.2-0.4-0.3-0.6-0.3c-0.5,0-0.7,0.2-0.8,0.7
			l-0.7,4.2v0.2c0,0.2,0.1,0.5,0.2,0.6s0.4,0.3,0.6,0.3c0.1,0,0.2,0,0.3,0l0.7-0.2c0.6,1.8,1.7,3.2,3.2,4.4c1.5,1.1,3.2,1.7,5.2,1.7
			s3.7-0.6,5.2-1.7s2.6-2.6,3.2-4.4L35,24c0.1,0,0.2,0,0.3,0c0.2,0,0.4-0.1,0.6-0.3s0.2-0.4,0.2-0.6v-0.2L35.5,18.7z M25.2,11.5
			c-0.2-0.3-0.4-0.6-0.4-0.9s0.1-0.6,0.4-0.9c0.2-0.2,0.5-0.4,0.9-0.4c0.3,0,0.6,0.1,0.9,0.4c0.2,0.2,0.4,0.5,0.4,0.9
			s-0.1,0.7-0.4,0.9c-0.2,0.2-0.5,0.4-0.9,0.4S25.4,11.7,25.2,11.5z"/>
	</g>
</g>
<circle class="st0" cx="26" cy="18.6" r="14.6"/>
<circle class="st4" cx="26" cy="18.6" r="13.3"/>
<g>
	<path class="st0" d="M35.1,23.8c-0.7,0-1.3-0.3-1.8-0.8c-0.1-0.1-0.3-0.2-0.5-0.2s-0.4,0.1-0.5,0.2c-0.4,0.5-1.1,0.8-1.8,0.8
		c-0.7,0-1.3-0.3-1.8-0.8c-0.1-0.1-0.3-0.2-0.5-0.2s-0.4,0.1-0.5,0.2c-0.4,0.5-1.1,0.8-1.8,0.8c-0.7,0-1.3-0.3-1.8-0.8
		c-0.1-0.1-0.3-0.2-0.5-0.2s-0.4,0.1-0.5,0.2c-0.4,0.5-1.1,0.8-1.8,0.8S20,23.5,19.5,23c-0.1-0.1-0.3-0.2-0.5-0.2s-0.4,0.1-0.5,0.2
		c-0.4,0.5-1.1,0.8-1.8,0.8c-0.4,0-0.6,0.3-0.6,0.6c0,0.4,0.3,0.6,0.6,0.6c0.7,0,1.5-0.2,2-0.6c0.1-0.1,0.1-0.1,0.2-0.2
		c0.1,0.1,0.1,0.1,0.2,0.2c0.6,0.4,1.3,0.6,2,0.6s1.5-0.2,2-0.6c0.1-0.1,0.1-0.1,0.2-0.2c0.1,0.1,0.1,0.1,0.2,0.2
		c0.6,0.4,1.3,0.6,2,0.6s1.5-0.2,2-0.6c0.1-0.1,0.1-0.1,0.2-0.2c0.1,0.1,0.1,0.1,0.2,0.2c0.6,0.4,1.3,0.6,2,0.6s1.5-0.2,2-0.6
		c0.1-0.1,0.1-0.1,0.2-0.2c0.1,0.1,0.1,0.1,0.2,0.2c0.6,0.4,1.3,0.6,2,0.6c0.4,0,0.6-0.3,0.6-0.6C35.7,24.1,35.4,23.8,35.1,23.8z"/>
	<path class="st5" d="M35.1,18.4c-0.7,0-1.3-0.3-1.8-0.8c-0.1-0.1-0.3-0.2-0.5-0.2s-0.4,0.1-0.5,0.2c-0.4,0.5-1.1,0.8-1.8,0.8
		c-0.7,0-1.3-0.3-1.8-0.8c-0.1-0.1-0.3-0.2-0.5-0.2s-0.4,0.1-0.5,0.2c-0.4,0.5-1.1,0.8-1.8,0.8c-0.7,0-1.3-0.3-1.8-0.8
		c-0.1-0.1-0.3-0.2-0.5-0.2s-0.4,0.1-0.5,0.2c-0.4,0.5-1.1,0.8-1.8,0.8s-1.3-0.3-1.8-0.8c-0.1-0.1-0.3-0.2-0.5-0.2s-0.4,0.1-0.5,0.2
		c-0.4,0.5-1.1,0.8-1.8,0.8c-0.4,0-0.6,0.3-0.6,0.6c0,0.4,0.3,0.6,0.6,0.6c0.7,0,1.5-0.2,2-0.6c0.1-0.1,0.1-0.1,0.2-0.2
		c0.1,0.1,0.1,0.1,0.2,0.2c0.6,0.4,1.3,0.6,2,0.6s1.5-0.2,2-0.6c0.1-0.1,0.1-0.1,0.2-0.2c0.1,0.1,0.1,0.1,0.2,0.2
		c0.6,0.4,1.3,0.6,2,0.6s1.5-0.2,2-0.6c0.1-0.1,0.1-0.1,0.2-0.2c0.1,0.1,0.1,0.1,0.2,0.2c0.6,0.4,1.3,0.6,2,0.6s1.5-0.2,2-0.6
		c0.1-0.1,0.1-0.1,0.2-0.2c0.1,0.1,0.1,0.1,0.2,0.2c0.6,0.4,1.3,0.6,2,0.6c0.4,0,0.6-0.3,0.6-0.6C35.7,18.7,35.4,18.4,35.1,18.4z"/>
	<path class="st5" d="M16.9,16.3c0.7,0,1.5-0.2,2-0.6c0.1-0.1,0.1-0.1,0.2-0.2c0.1,0.1,0.1,0.1,0.2,0.2c0.6,0.4,1.3,0.6,2,0.6
		s1.5-0.2,2-0.6c0.1-0.1,0.1-0.1,0.2-0.2c0.1,0.1,0.1,0.1,0.2,0.2c0.6,0.4,1.3,0.6,2,0.6s1.5-0.2,2-0.6c0.1-0.1,0.1-0.1,0.2-0.2
		c0.1,0.1,0.1,0.1,0.2,0.2c0.6,0.4,1.3,0.6,2,0.6s1.5-0.2,2-0.6c0.1-0.1,0.1-0.1,0.2-0.2c0.1,0.1,0.1,0.1,0.2,0.2
		c0.6,0.4,1.3,0.6,2,0.6c0.4,0,0.6-0.3,0.6-0.6s0.3-0.7,0-0.7c-0.7,0-1.3-0.3-1.8-0.8C33.2,14,33,14,32.8,14s-0.4,0.1-0.5,0.2
		c-0.4,0.5-1.1,0.8-1.8,0.8c-0.7,0-1.3-0.3-1.8-0.8C28.6,14,28.5,14,28.3,14s-0.4,0.1-0.5,0.2C27.3,14.7,26.7,15,26,15
		s-1.3-0.3-1.8-0.8C24.1,14,23.9,14,23.7,14c-0.2,0-0.4,0.1-0.5,0.2c-0.4,0.5-1.1,0.8-1.8,0.8s-1.3-0.3-1.8-0.8
		c0-0.2-0.2-0.2-0.4-0.2s-0.4,0.1-0.5,0.2c-0.4,0.5-1.1,0.8-1.8,0.8c-0.4,0-0.6,0.3-0.6,0.6S16.6,16.3,16.9,16.3z"/>
</g>
<path id="path2559" class="st0" d="M36.6,19.6c-0.2-0.3-0.7-0.3-1-0.3c-0.2-0.4-0.5-0.9-0.7-1.3c-0.1,0.5-0.2,1-0.3,1.5
	c-0.2,0-0.5,0.1-0.7,0.2c-0.3-0.4-0.7-0.9-1-1.3c-0.1,0.4-0.2,0.9-0.3,1.3c-0.4,0.2-0.8,0.2-1.2,0.2c-0.2-0.5-0.4-0.9-0.6-1.3
	c-0.2,0.4-0.3,0.9-0.5,1.3c-0.5,0-0.9,0.1-1.4,0c-0.2-0.4-0.4-0.9-0.5-1.3c-0.2,0.4-0.4,0.8-0.6,1.2c-0.4-0.1-0.8-0.1-1.2-0.1
	c-0.2-0.4-0.4-0.8-0.5-1.2c-0.2,0.4-0.3,0.8-0.5,1.2c-0.4,0-0.7,0-1.1,0c-0.2-0.4-0.4-0.8-0.5-1.1c-0.2,0.4-0.3,0.7-0.5,1.1
	c-0.5,0-1.1,0-1.6,0c0.6-0.7,1.5-1,2.2-1.5c0.3,0.3,0.7,0.5,1,0.8c0-0.4,0-0.8,0-1.3c0.3-0.2,0.7-0.3,1-0.4c0.4,0.3,0.8,0.6,1.1,0.8
	c0-0.5,0-1,0-1.4c0.3-0.2,0.5-0.3,0.8-0.4c0.5,0.3,0.9,0.5,1.4,0.8c-0.1-0.5-0.2-0.9-0.3-1.3c0.3-0.2,0.7-0.4,1-0.6
	c0.4,0.3,0.8,0.5,1.2,0.8c-0.1-0.4-0.2-0.9-0.3-1.3c0.3-0.2,0.7-0.5,1-0.7c0.4,0.3,0.8,0.6,1.2,0.8c-0.1-0.4-0.2-0.9-0.4-1.3
	c0.3-0.2,0.5-0.4,0.8-0.6c0.4,0.2,0.7,0.5,1.1,0.7c-0.1-0.5-0.2-0.9-0.4-1.4c0.2-0.2,0.4-0.3,0.5-0.5c0-0.2-0.2-0.4-0.4-0.6
	c-0.5-0.3-1.2-0.4-1.8-0.2c-0.4,0.3-0.7,0.8-1,1.1c-1.6,1.4-3.6,2.5-5.8,3c-1.2,0.3-2.5-0.6-3.7-0.2c-1.3,0.5-1.9,2-3.2,2.5
	c-0.5,0.2-1-0.1-1.4,0c-0.3,0.2-0.4,0.5-0.5,0.7c-0.8,1.4-1.6,2.9-2.3,4.3c0.5,0.1,2.8-0.2,3.1-0.5c0.5-0.7,1.3-0.7,2.1-0.3
	c0.5,0.3,0.8,0.6,1.3,0.9c0.6,0,1.1-0.4,1.5-0.7c0.6-0.5,1-0.5,1.6-0.2c0.4,0.2,0.6,0.7,1,0.9c0.3,0.1,0.7,0.2,1-0.1
	c0.4-0.3,0.6-0.7,1.2-0.9c0.7-0.2,1.3-0.1,1.8,0.5c0.3,0.3,0.9,0.6,1.4,0.5c1.6-0.3,1.3-1.1,2-1.2c0.7-0.2,1.3,0.2,1.9,0.3
	c0.7-0.1,0.2,0.1,1.3-0.2C36.3,20.6,36.9,20.1,36.6,19.6z M25,15.4c-0.3,0.2-0.6,0.4-0.9,0.6c0-0.3-0.1-0.6-0.1-0.9
	C24.4,15.2,24.7,15.3,25,15.4z M22.4,15.7c0.1-0.5,0.7-0.7,1.2-0.7c0,0.4,0.1,0.8,0.1,1.2C23.3,16.7,22.1,16.4,22.4,15.7z"/>
</svg>
