<?xml version="1.0" encoding="utf-8"?>
<!-- Generator: Adobe Illustrator 21.0.0, SVG Export Plug-In . SVG Version: 6.00 Build 0)  -->
<svg version="1.1" id="Capa_1" xmlns="http://www.w3.org/2000/svg" xmlns:xlink="http://www.w3.org/1999/xlink" x="0px" y="0px"
	 viewBox="0 0 52 52" style="enable-background:new 0 0 52 52;" xml:space="preserve">
<style type="text/css">
	.st0{display:none;fill:#FFFFFF;}
	.st1{fill:#11A0C6;}
	.st2{fill:#FFFFFF;}
	.st3{fill:#0B6594;}
	.st4{fill:#FFD084;}
</style>
<path class="st0" d="M26,5.5c-7.3,0-13.2,5.9-13.2,13.2S18.7,31.9,26,31.9S39.2,26,39.2,18.7S33.3,5.5,26,5.5z M26.7,7.4
	c1,0,1.8,0.8,1.8,1.8S27.7,11,26.7,11s-1.8-0.8-1.8-1.8C24.9,8.2,25.7,7.4,26.7,7.4z M32.3,28.8c-0.2,0-0.4-0.2-0.4-0.4l-0.1-10.7
	h-3.3c-0.3,0-0.6-0.1-0.8-0.4L26.9,16l-0.6,4.2l2.1,2c0.3,0.2,0.4,0.6,0.4,0.9l-0.3,4.6c0,0.6-0.5,1-1.1,1h-0.1
	c-0.6,0-1.1-0.6-1-1.2l0.3-4.1l-2.1-1.9l-0.8,2.8c0,0.1-0.1,0.3-0.2,0.4l-2.6,3.5c-0.2,0.3-0.6,0.5-0.9,0.5c-0.2,0-0.5-0.1-0.7-0.2
	c-0.5-0.4-0.6-1.1-0.2-1.6l2.5-3.3l1.1-4.2l0.1-0.3c-0.9-0.1-1.7-0.9-1.7-1.8V9.5c0-0.4,0.3-0.7,0.7-0.7h1.8c0.4,0,0.7,0.3,0.7,0.7
	v2.1c0.4-0.3,0.9-0.5,1.4-0.4s0.9,0.3,1.2,0.7c0.3,0.4,0.4,0.9,0.4,1.4l0,0l1.8,2.5h3.2c0.5,0,0.9,0.4,0.9,0.9
	c0,0.4-0.2,0.7-0.6,0.9l0.1,10.8C32.7,28.6,32.5,28.8,32.3,28.8z"/>
<g>
	<path class="st1" d="M37.4,6.2c-7-7-18.4-7-25.4,0c-6.3,6.3-7,18.2-1.7,25.3l14.4,20.8l14.4-20.7C44.4,24.4,43.7,12.5,37.4,6.2z"/>
	<g>
		<path class="st1" d="M37,34.7c-0.4,0.5-0.9,1-1.1,1.6L37,34.7z"/>
		<path class="st1" d="M10.3,25.8c0-1.2-0.9-8.6-0.9-9.8c0-4.8,7.5-8.2,7.5-8.7c0-6.4,6.2-4.8,6.5-5.4l12.8,6.6
			c0,2.1,0.9,3.5,2.3,4.3c0.3-0.1,0.6-0.2,0.9-0.3c0.2-0.1,0.4,0,0.4,0.2c0,0.2,0,0.4,0,0.6c0.6,0.2,1.3,0.4,2.1,0.5
			c-0.4-1.4-1-2.8-1.7-4.1c0,0,0-0.1-0.1-0.1c-0.3-0.5-0.6-1-0.9-1.5c-0.1-0.1-0.2-0.3-0.3-0.4c-0.2-0.2-0.3-0.4-0.5-0.6
			c-0.2-0.2-0.3-0.4-0.5-0.6c-0.1-0.1-0.2-0.3-0.4-0.4C33.9,2.7,29.3,1,24.7,1C20.1,1,15.5,2.7,12,6.2c-0.4,0.4-0.8,0.8-1.1,1.2
			c0,0,0,0,0,0c-0.3,0.4-0.6,0.8-0.9,1.3c0,0,0,0,0,0.1c-0.9,1.4-1.6,2.9-2.1,4.5c0,0.1,0,0.1,0,0.2c-0.2,0.5-0.3,1-0.4,1.5
			c0,0,0,0.1,0,0.1c-0.2,1.1-0.4,2.2-0.5,3.3c0,0.1,0,0.3,0,0.4c0,0.4,0,0.8,0,1.2c0,0.2,0,0.3,0,0.5c0,0.4,0,0.8,0.1,1.3
			c0,0.1,0,0.3,0,0.4c0,0.5,0.1,0.9,0.2,1.4c0,0.2,0.1,0.4,0.1,0.7c0.1,0.3,0.1,0.6,0.2,0.8c0.1,0.2,0.1,0.5,0.2,0.7
			c0,0.1,0.1,0.2,0.1,0.2C7.7,26,8.9,26,10.3,26C10.3,25.9,10.3,25.9,10.3,25.8z"/>
		<path class="st1" d="M40,30.2C40,30.2,40,30.2,40,30.2C40,30.2,40,30.2,40,30.2L40,30.2z"/>
		<polygon class="st1" points="38.6,32.4 38.6,32.4 38.6,32.4 		"/>
		<path class="st2" d="M19.1,25.8c1-0.1,2,0.1,2.9,0.2c1,0.1,2,0.3,2.9,0.7c0.5,0.2,1,0.4,1.4,0.6c0.7,0.4,1.1,0.9,1.4,1.6
			c0.3,0.7,0.9,1.2,1.6,1.4c0.1,0,0.3,0.1,0.4,0.1c0.8-0.4,1.8-0.9,2.5-1.2c-0.9-0.2-1.8-0.5-2.6-1c-0.4-0.3-0.8-0.6-1-1.1
			c-0.4-0.7-1-1.2-1.8-1.4c-1.9-0.7-3.9-0.6-5.9-0.6c-0.6,0-1.2,0.1-1.8,0.2c-0.2,0-0.3,0-0.6-0.1c1.7-0.7,3.3-1.3,4.9-1.9
			c-0.1-0.9-0.2-1.9-0.3-2.8c-0.1-0.5,0-0.9-0.1-1.4c-0.1-0.7-0.1-1.5-0.2-2.2c-0.1-0.6-0.1-1.2-0.2-1.9c0-0.3-0.2-0.6-0.2-1
			c0-0.2,0-0.3,0.2-0.3c0.2,0,0.3-0.2,0.3-0.4c0-0.5,0-1,0-1.4c0-0.1,0-0.3-0.2-0.3c-0.3-0.1-0.2-0.5-0.3-0.7
			c-0.4-1.1-1.4-1.6-2.4-1c-0.4,0.2-0.8,0.6-0.8,1.2c0,0.1,0,0.2-0.1,0.3c-0.3,0.2-0.3,0.5-0.3,0.8c0,0.4,0,0.8,0,1.2
			c0,0.1,0,0.3,0.1,0.3c0.4,0.1,0.3,0.3,0.3,0.6c0,1-0.1,2.1-0.2,3.1c-0.2,1.9-0.4,3.8-0.6,5.6c-0.1,0.7-0.2,1.3-0.2,2
			c0,0.2-0.1,0.2-0.2,0.3c-0.2,0.1-0.4,0.1-0.5,0.3C18.3,25.8,18.7,25.9,19.1,25.8z M22.2,12.2c0.3,0,0.3,0.2,0.3,0.4
			c0,0,0,0.1,0,0.2c-0.1,0.1,0.1,0.4-0.2,0.5c-0.3,0.1-0.4,0-0.5-0.3c0-0.1,0-0.2,0-0.3C21.9,12.4,21.8,12.2,22.2,12.2z M21.2,12.2
			c0.4,0,0.3,0.3,0.3,0.5c0,0.2,0.1,0.5-0.4,0.5c-0.4,0-0.3-0.3-0.3-0.5C20.8,12.3,20.9,12.2,21.2,12.2z M20.2,12.2
			c0.3,0,0.4,0.2,0.3,0.4c0,0,0,0.1,0,0.1c0,0.4,0,0.5-0.4,0.5c-0.2,0-0.3-0.1-0.3-0.3c0-0.1,0-0.2,0-0.3
			C19.8,12.4,19.9,12.2,20.2,12.2z"/>
		<path class="st3" d="M29.7,41.3c-0.3-0.6-0.3-1.1-0.1-1.7c0.3-0.8,0.8-1.6,1.3-2.3c0.5-0.7,1-1.4,1.3-2.2c0.4-0.9-0.3-1.7-0.9-2
			c-1-0.4-2-0.6-3.1-0.6c-0.7,0-1.4-0.1-2.1-0.2c-0.8-0.1-1.6-0.3-2.2-0.9c-0.4-0.4-0.5-0.8-0.4-1.3c0.1-0.5,0.1-1,0.1-1.5
			c-0.1-0.6-0.5-1-1.1-1.2c-0.6-0.2-1.1-0.5-1.7-0.6c-0.9-0.2-1.7-0.6-2.5-0.7c-0.3,0-0.5-0.2-0.7-0.2c-0.1,0-4.3-0.1-7.2-0.1
			c-1.5,0-2.6,0-2.7,0.1c0.6,2,1.5,3.9,2.7,5.5l14.4,20.8l6.8-9.8c-0.2-0.1-0.3-0.2-0.5-0.2C30.5,42.1,30,41.8,29.7,41.3z"/>
		<path class="st2" d="M39.9,30.2c-1.1-0.2-2.3,0-3.4-0.3c-0.3-0.1-0.6-0.1-0.9-0.1c-0.6,0-1.2-0.1-1.8-0.2c-0.5-0.1-1-0.2-1.5-0.3
			c-0.8,0.4-1.8,0.9-2.5,1.2c0.4,0.1,0.7,0.2,1.1,0.3c0.3,0.1,0.5,0.1,0.8,0.1c0.7,0.2,1.5,0.1,2.2,0.2c0.6,0.1,1.3,0.1,1.9,0.1
			c0.6,0,1.2,0.2,1.8,0.2c0.2,0,0.3,0.1,0.5,0.2c0.3,0.1,0.4,0.3,0.5,0.5c0,0,0,0,0,0c0,0,0,0,0,0c0,0,0.1-0.1,0.1-0.1l0.4-0.6
			c0.3-0.4,0.6-0.8,0.8-1.2C40,30.3,40,30.2,39.9,30.2L39.9,30.2L39.9,30.2C40,30.2,39.9,30.2,39.9,30.2z"/>
		<path class="st4" d="M38,21.8c-1.2,0.1-2.4,0.3-3.5,0.8c-0.5,0.2-1,0.3-1.5,0.1c-0.6-0.2-1.2-0.2-1.8-0.3c-0.8-0.1-1.6,0-2.4-0.1
			c-0.7,0-1.4,0-2,0.2c-0.8,0.3-1.6,0.4-2.4,0.7c-0.3,0.1-0.5,0.3-0.8,0.2c-1.6,0.6-3.2,1.2-4.9,1.9c0.2,0.1,0.4,0.1,0.6,0.1
			c0.6-0.1,1.2-0.2,1.8-0.2c2-0.1,4-0.1,5.9,0.6c0.8,0.3,1.4,0.7,1.8,1.4c0.2,0.5,0.6,0.8,1,1.1c0.8,0.5,1.7,0.8,2.6,1
			c0.5,0.1,1,0.2,1.5,0.3c0.6,0.1,1.2,0.2,1.8,0.2c0.3,0,0.6,0,0.9,0.1c1.1,0.3,2.2,0.1,3.4,0.3c0,0,0,0,0,0c0,0,0,0,0.1,0
			c0,0,0,0,0,0c1.4-2.4,2.3-5.3,2.5-8.2c-0.3,0-0.7,0-1-0.1C40.4,21.9,39.2,21.7,38,21.8z"/>
		<path class="st4" d="M38.1,31.8c-0.2-0.1-0.3-0.2-0.5-0.2c-0.6-0.1-1.2-0.2-1.8-0.2c-0.6,0-1.3,0-1.9-0.1c-0.7-0.2-1.5,0-2.2-0.2
			c-0.2-0.1-0.5-0.1-0.8-0.1c-0.4-0.1-0.7-0.2-1.1-0.3c-0.1,0-0.3-0.1-0.4-0.1c-0.8-0.2-1.3-0.7-1.6-1.4c-0.3-0.7-0.7-1.3-1.4-1.6
			c-0.5-0.2-0.9-0.4-1.4-0.6c-1-0.4-1.9-0.6-2.9-0.7c-1-0.1-1.9-0.3-2.9-0.2c-0.4,0-0.9,0-1.3,0c-0.1,0.1-0.3-0.1-0.4,0.2
			c0.3,0,0.5,0.1,0.7,0.2c0.9,0.1,1.7,0.5,2.5,0.7c0.6,0.1,1.2,0.4,1.7,0.6c0.6,0.2,1,0.6,1.1,1.2c0.1,0.5,0.1,1-0.1,1.5
			c-0.1,0.5,0,1,0.4,1.3c0.6,0.6,1.4,0.7,2.2,0.9c0.7,0.1,1.4,0.2,2.1,0.2c1.1,0,2.1,0.2,3.1,0.6c0.7,0.3,1.4,1.1,0.9,2
			c-0.4,0.8-0.8,1.5-1.3,2.2c-0.5,0.7-1,1.4-1.3,2.3c-0.2,0.5-0.2,1.1,0.1,1.7c0.3,0.5,0.8,0.8,1.3,1c0.2,0.1,0.3,0.2,0.5,0.2
			l4.3-6.2c0,0,0,0,0,0c0.3-0.6,0.7-1.1,1.1-1.6c0,0,0,0,0.1-0.1l1.6-2.2c0,0,0,0,0,0c0,0,0,0,0,0C38.5,32.1,38.4,31.9,38.1,31.8z"
			/>
		<path class="st1" d="M21.2,13.2c0.4,0,0.4-0.3,0.4-0.5c0-0.2,0.1-0.5-0.3-0.5c-0.3,0-0.4,0.1-0.4,0.5
			C20.8,12.9,20.8,13.2,21.2,13.2z"/>
		<path class="st1" d="M20.1,13.2c0.4,0,0.4,0,0.4-0.5c0,0,0-0.1,0-0.1c0-0.3,0-0.4-0.3-0.4c-0.3,0-0.4,0.2-0.3,0.4
			c0,0.1,0,0.2,0,0.3C19.8,13.1,19.9,13.2,20.1,13.2z"/>
		<path class="st1" d="M21.9,12.9c0,0.3,0.2,0.4,0.5,0.3c0.3-0.1,0.1-0.3,0.2-0.5c0-0.1,0-0.1,0-0.2c0-0.2,0-0.4-0.3-0.4
			c-0.3,0-0.3,0.2-0.3,0.4C21.9,12.7,21.9,12.8,21.9,12.9z"/>
		<path class="st1" d="M41.8,13.9C41.8,13.9,41.8,13.9,41.8,13.9c-0.7-0.1-1.4-0.3-2.1-0.5c0-0.2,0-0.4,0-0.6c0-0.3-0.2-0.3-0.4-0.2
			c-0.3,0.1-0.6,0.2-0.9,0.3c-1.4-0.9-2.3-2.2-2.3-4.3L23.4,1.8c-0.3,0.6-6.5-1-6.5,5.4c0,0.6-7.5,3.9-7.5,8.7
			c0,1.2,0.9,8.6,0.9,9.8c0,0.1,0,0.1,0,0.1c2.9,0,7,0.1,7.2,0.1c0-0.3,0.2-0.1,0.4-0.2c0.1-0.2,0.4-0.2,0.5-0.3
			c0.1-0.1,0.2-0.1,0.2-0.3c0-0.7,0.1-1.3,0.2-2c0.2-1.9,0.4-3.8,0.6-5.6c0.1-1,0.3-2,0.2-3.1c0-0.2,0.1-0.5-0.3-0.6
			c-0.1,0-0.1-0.2-0.1-0.3c0-0.4,0-0.8,0-1.2c0-0.3,0-0.6,0.3-0.8c0.1-0.1,0.1-0.2,0.1-0.3c0-0.6,0.4-1,0.8-1.2c1-0.6,2-0.1,2.4,1
			c0.1,0.2,0,0.6,0.3,0.7c0.2,0.1,0.2,0.2,0.2,0.3c0,0.5,0,1,0,1.4c0,0.2,0,0.4-0.3,0.4c-0.2,0-0.2,0.2-0.2,0.3c0,0.3,0.1,0.6,0.2,1
			c0.1,0.6,0.1,1.2,0.2,1.9c0.1,0.7,0.1,1.5,0.2,2.2c0.1,0.5,0.1,0.9,0.1,1.4c0.1,0.9,0.1,1.9,0.3,2.8c0.3,0,0.6-0.1,0.8-0.2
			c0.8-0.3,1.6-0.4,2.4-0.7c0.7-0.2,1.3-0.2,2-0.2c0.8,0,1.6-0.1,2.4,0.1c0.6,0.1,1.2,0.1,1.8,0.3c0.5,0.2,1,0.1,1.5-0.1
			c1.1-0.5,2.3-0.7,3.5-0.8c1.2-0.1,2.4,0.1,3.6,0.2c0.3,0,0.7,0.1,1,0.1C42.8,19.3,42.6,16.5,41.8,13.9z"/>
	</g>
</g>
</svg>
